<?xml version="1.0" standalone="no"?>
<!DOCTYPE svg PUBLIC "-//W3C//DTD SVG 20010904//EN"
 "http://www.w3.org/TR/2001/REC-SVG-20010904/DTD/svg10.dtd">
<svg version="1.0" xmlns="http://www.w3.org/2000/svg"
 width="2000.000000pt" height="2000.000000pt" viewBox="0 0 2000.000000 2000.000000"
 preserveAspectRatio="xMidYMid meet">
<metadata>
Created by potrace 1.14, written by Peter Selinger 2001-2017
</metadata>
<g transform="translate(0.000000,2000.000000) scale(0.100000,-0.100000)"
fill="#000000" stroke="none">
<path d="M8980 18415 c0 -8 5 -15 10 -15 6 0 10 7 10 15 0 8 -4 15 -10 15 -5
0 -10 -7 -10 -15z"/>
<path d="M9585 18389 c-4 -6 -5 -12 -2 -15 2 -3 7 2 10 11 7 17 1 20 -8 4z"/>
<path d="M10135 18390 c3 -5 8 -10 11 -10 2 0 4 5 4 10 0 6 -5 10 -11 10 -5 0
-7 -4 -4 -10z"/>
<path d="M10240 18339 c0 -14 6 -18 23 -15 12 3 28 5 36 5 21 1 8 10 -28 21
-27 7 -31 6 -31 -11z"/>
<path d="M8965 18330 c3 -5 12 -7 20 -3 21 7 19 13 -6 13 -11 0 -18 -4 -14
-10z"/>
<path d="M9057 18301 c17 -11 42 -34 54 -50 25 -34 39 -39 39 -16 0 24 -71 85
-99 85 l-26 0 32 -19z"/>
<path d="M10136 18287 c-3 -19 -17 -43 -31 -55 -14 -12 -25 -31 -25 -42 0 -11
-7 -20 -15 -20 -18 0 -20 -21 -4 -37 8 -8 8 -17 -1 -33 -8 -14 -8 -25 -2 -29
15 -9 25 -68 13 -76 -6 -3 -11 1 -11 9 0 9 -4 16 -10 16 -18 0 -11 -46 10 -65
19 -18 20 -17 20 6 0 14 9 30 21 37 16 10 18 16 9 27 -15 18 -3 38 18 30 14
-5 14 -3 -1 13 -9 10 -17 24 -17 30 0 7 -7 12 -15 12 -17 0 -19 23 -4 51 10
19 10 19 39 -1 34 -24 58 -27 35 -4 -9 9 -14 23 -11 31 3 8 1 11 -4 8 -12 -8
-13 37 -1 88 5 20 5 37 1 37 -4 0 -11 -15 -14 -33z"/>
<path d="M10390 18302 c0 -12 19 -26 26 -19 2 2 -2 10 -11 17 -9 8 -15 8 -15
2z"/>
<path d="M10016 18277 c-6 -12 -3 -24 8 -36 13 -15 14 -20 4 -24 -9 -3 -10 -8
-3 -14 7 -7 16 -3 28 9 18 19 18 20 -2 25 -12 3 -21 15 -24 32 -3 22 -4 23
-11 8z"/>
<path d="M8961 18266 c-9 -11 -10 -20 -1 -36 15 -28 28 -17 22 20 -5 35 -5 35
-21 16z"/>
<path d="M9460 18236 c0 -9 5 -16 10 -16 6 0 10 4 10 9 0 6 -4 13 -10 16 -5 3
-10 -1 -10 -9z"/>
<path d="M10300 18200 c0 -5 5 -10 10 -10 6 0 10 5 10 10 0 6 -4 10 -10 10 -5
0 -10 -4 -10 -10z"/>
<path d="M9062 18178 c2 -18 10 -22 44 -23 49 -1 116 -48 110 -77 -2 -10 0
-18 5 -18 17 0 9 34 -13 58 l-23 25 28 -5 c19 -4 27 -1 27 9 0 8 -5 11 -12 7
-6 -4 -16 0 -22 8 -15 20 -56 41 -56 29 0 -7 -9 -7 -26 -1 -44 17 -66 13 -62
-12z"/>
<path d="M9363 18180 c-3 -11 -12 -20 -20 -20 -10 0 -14 -7 -10 -19 5 -22 -18
-61 -35 -61 -7 0 -23 10 -37 23 l-24 22 19 -27 c10 -15 25 -28 33 -28 7 0 29
-13 48 -30 18 -16 45 -30 58 -30 14 0 25 -4 25 -9 0 -16 67 -52 84 -45 9 3 16
1 16 -5 0 -6 10 -16 23 -21 12 -5 38 -22 57 -37 l34 -28 -27 47 c-33 57 -34
68 -4 40 13 -12 27 -19 30 -15 4 3 7 -6 7 -20 0 -26 59 -105 60 -79 0 20 40
14 61 -10 l19 -23 6 23 c7 26 17 28 34 7 9 -11 16 -13 24 -5 15 15 23 12 29
-11 5 -19 7 -20 30 -4 18 11 27 13 32 5 5 -8 11 -5 21 7 12 16 15 16 25 3 9
-13 10 -12 5 3 -8 26 23 21 34 -5 5 -13 10 -20 11 -15 6 23 7 28 8 34 0 4 8
-2 16 -13 12 -16 14 -17 15 -2 0 9 -6 19 -12 22 -10 5 -10 7 1 12 25 12 52 45
45 56 -5 7 -10 5 -15 -8 -9 -25 -64 -65 -75 -55 -5 5 -26 12 -46 15 -28 5 -38
3 -39 -6 0 -7 -5 -2 -10 11 -7 18 -4 31 12 58 22 35 22 35 1 22 -11 -7 -25
-23 -31 -36 -12 -26 -38 -30 -66 -9 -10 7 -27 11 -36 9 -15 -4 -16 -9 -8 -24
13 -25 2 -44 -17 -28 -8 6 -11 21 -8 33 5 20 -2 26 -53 49 -71 32 -87 35 -88
20 0 -6 -3 -14 -6 -17 -8 -9 -109 102 -109 120 0 8 -5 12 -10 9 -16 -10 -40
15 -40 41 0 16 -12 31 -37 49 -45 30 -53 31 -60 5z"/>
<path d="M8539 18169 c-8 -4 -4 -9 10 -14 27 -8 29 -45 2 -45 -10 0 -24 -7
-31 -15 -10 -12 -9 -15 7 -15 26 0 67 45 60 64 -4 10 -1 16 7 16 8 0 16 -7 20
-15 4 -12 10 -13 31 -3 14 6 23 13 21 15 -9 9 -116 19 -127 12z"/>
<path d="M10015 18148 c5 -34 3 -38 -15 -38 -23 0 -24 -4 -10 -30 10 -19 11
-19 30 0 24 24 24 28 5 71 l-16 34 6 -37z"/>
<path d="M8723 18160 c27 -5 54 -13 60 -19 7 -5 36 -13 65 -17 62 -8 60 -19
-3 -15 -24 1 -54 -3 -67 -10 l-23 -12 25 -7 c14 -4 51 -5 83 -2 44 3 57 8 53
18 -6 16 17 19 43 5 10 -6 28 -11 42 -13 34 -5 49 -16 43 -33 -4 -10 0 -12 16
-8 16 4 18 8 9 14 -23 14 -3 21 32 10 19 -5 28 -10 22 -10 -18 -1 -16 -38 1
-44 8 -3 20 1 26 9 7 8 8 14 3 14 -5 0 -10 7 -10 15 0 13 3 13 16 2 26 -21 70
-37 76 -27 3 5 -4 14 -15 20 -11 6 -18 15 -16 19 3 4 -17 8 -44 9 -28 0 -56 4
-62 8 -7 4 -32 9 -56 10 -24 1 -53 6 -65 12 -12 6 -53 15 -92 22 -95 15 -94
15 -107 28 -7 7 -32 11 -57 11 l-46 -1 48 -8z"/>
<path d="M8687 18124 c-3 -3 -22 -6 -41 -6 -20 0 -38 -4 -41 -9 -3 -4 20 -7
52 -5 32 2 72 4 88 5 23 1 27 3 15 11 -17 11 -63 13 -73 4z"/>
<path d="M9560 18100 c0 -5 5 -10 11 -10 5 0 7 5 4 10 -3 6 -8 10 -11 10 -2 0
-4 -4 -4 -10z"/>
<path d="M11088 18103 c7 -3 16 -2 19 1 4 3 -2 6 -13 5 -11 0 -14 -3 -6 -6z"/>
<path d="M8618 18092 c-10 -2 -18 -10 -18 -17 0 -10 -12 -14 -45 -12 -25 1
-45 5 -45 10 0 10 -58 9 -65 -2 -12 -20 34 -30 121 -25 70 4 86 3 77 -7 -15
-15 -90 -28 -174 -28 -92 -1 -131 -10 -136 -33 -6 -22 -19 -23 -27 -2 -4 10 1
22 11 30 29 22 4 16 -28 -7 -24 -17 -29 -18 -29 -5 0 9 8 16 18 17 11 0 13 2
4 6 -8 3 -35 -6 -61 -21 -27 -14 -51 -23 -54 -20 -3 4 -20 -5 -37 -20 -17 -14
-38 -26 -46 -26 -9 0 -13 -4 -9 -9 3 -6 -3 -15 -14 -21 -12 -6 -18 -16 -15
-25 4 -9 0 -15 -8 -15 -7 0 -21 -9 -31 -20 -16 -19 -33 -24 -69 -21 -23 3 -31
-16 -11 -23 14 -6 15 -9 4 -16 -9 -5 -20 -3 -29 7 -11 11 -17 12 -22 2 -13
-19 -29 23 -28 72 1 76 14 104 58 124 22 10 40 22 40 26 0 17 -17 16 -60 -4
-31 -16 -46 -30 -51 -50 -8 -31 -3 -162 6 -178 4 -6 4 -13 1 -16 -3 -3 -1 -12
4 -18 7 -9 -2 -20 -32 -41 -24 -16 -47 -35 -51 -41 -4 -7 -14 -13 -21 -13 -8
0 -16 -7 -20 -15 -3 -8 -14 -15 -25 -15 -11 0 -22 -9 -26 -20 -7 -23 -9 -23
-53 -11 -25 8 -32 7 -32 -4 0 -8 7 -18 15 -23 13 -7 12 -10 -10 -20 -14 -6
-25 -15 -25 -20 0 -4 -16 -8 -35 -8 -19 0 -35 4 -35 8 0 4 -5 8 -11 8 -6 0 -8
-9 -4 -20 4 -11 2 -20 -4 -20 -6 0 -11 -6 -11 -13 0 -8 -9 -22 -20 -32 -10 -9
-29 -36 -41 -59 -26 -50 -67 -89 -85 -82 -8 3 -14 -1 -14 -9 0 -8 -6 -15 -14
-15 -9 0 -16 -12 -18 -27 -2 -20 -9 -29 -24 -31 -12 -2 -26 -14 -33 -28 -7
-16 -17 -24 -25 -21 -9 4 -16 -3 -20 -17 -4 -17 -33 -37 -112 -77 -106 -53
-128 -69 -100 -69 9 0 16 -4 16 -10 0 -5 -4 -10 -10 -10 -5 0 -10 -6 -10 -13
0 -20 -33 -47 -57 -47 -25 0 -49 -26 -64 -68 -6 -17 -20 -34 -32 -38 -21 -7
-64 -43 -136 -115 -20 -20 -62 -55 -94 -78 -32 -24 -63 -53 -69 -67 -11 -24
-80 -64 -111 -64 -9 0 -17 -4 -17 -9 0 -6 -11 -22 -25 -37 -14 -15 -25 -30
-25 -34 0 -13 -103 -71 -117 -66 -23 9 -61 -4 -66 -23 -3 -12 -16 -18 -48 -19
-24 -2 -62 -12 -85 -22 -48 -24 -54 -24 -54 -6 0 8 -15 0 -37 -20 -20 -18 -40
-31 -44 -29 -12 8 -59 -17 -60 -32 -1 -7 -2 -17 -3 -23 -1 -5 2 -10 7 -10 4 0
7 3 6 6 -2 15 26 21 52 12 19 -6 32 -21 39 -44 10 -29 15 -33 34 -28 16 4 25
0 29 -10 4 -9 13 -16 20 -16 8 0 20 -6 26 -14 16 -20 -2 -54 -35 -66 -13 -5
-24 -17 -24 -25 0 -30 -66 -109 -82 -99 -5 3 -8 1 -8 -5 0 -5 8 -12 18 -14 16
-4 16 -5 0 -6 -10 0 -18 -5 -18 -10 0 -5 -8 -7 -19 -4 -22 6 -39 -16 -21 -27
8 -5 3 -10 -14 -14 -42 -10 -60 -66 -21 -66 7 0 15 5 17 12 3 7 12 9 23 4 18
-6 18 -8 -5 -20 -14 -7 -24 -18 -22 -25 4 -19 -26 -24 -44 -6 -15 15 -18 15
-35 -1 -24 -21 -43 -10 -28 17 6 12 8 23 5 26 -3 3 -11 -6 -17 -21 -7 -14 -15
-26 -19 -26 -4 0 -15 -17 -24 -39 -10 -21 -29 -44 -42 -52 -13 -7 -24 -21 -24
-32 0 -10 -9 -21 -20 -24 -11 -3 -20 -10 -20 -16 0 -5 -11 -24 -24 -41 -13
-17 -24 -34 -24 -39 -1 -4 -8 -20 -17 -36 -9 -18 -11 -31 -5 -33 12 -4 -10
-58 -22 -58 -5 0 -8 -8 -7 -17 0 -11 3 -13 6 -5 2 6 9 12 15 12 14 0 1 -48
-23 -81 -10 -15 -19 -32 -19 -39 0 -6 -4 -9 -10 -5 -6 4 -6 15 0 31 16 41 12
46 -21 22 -22 -16 -29 -28 -25 -43 5 -21 -8 -47 -68 -125 -19 -25 -52 -71 -73
-102 -21 -31 -43 -57 -50 -58 -6 0 -16 -14 -22 -32 -6 -17 -22 -45 -35 -62
-16 -22 -23 -44 -23 -74 0 -24 -5 -48 -12 -55 -14 -14 -14 -27 -1 -27 6 0 10
6 10 13 0 7 9 20 20 30 11 9 20 23 20 31 0 8 8 19 17 25 10 5 18 20 18 33 1
12 16 38 33 57 18 18 32 42 32 53 0 10 21 51 48 90 26 38 55 83 66 100 27 43
32 26 7 -27 -11 -24 -21 -50 -21 -56 0 -19 26 8 45 46 18 39 40 48 30 13 -11
-34 -43 -87 -85 -138 -41 -49 -82 -128 -75 -140 9 -14 -72 -145 -87 -142 -8 1
-23 -7 -33 -18 -10 -11 -24 -20 -32 -20 -7 0 -13 -7 -13 -15 0 -8 -7 -15 -15
-15 -8 0 -15 5 -15 10 0 18 -18 11 -25 -10 -3 -11 -12 -20 -19 -20 -8 0 -16
-15 -19 -32 -3 -18 -9 -42 -13 -52 -5 -14 -4 -17 4 -12 19 12 33 -3 22 -22
-25 -45 -28 -46 -44 -33 -14 12 -16 9 -16 -21 0 -27 -6 -38 -26 -49 -28 -15
-114 -105 -114 -120 0 -14 28 -11 37 4 4 8 16 16 25 20 13 5 19 0 24 -18 7
-27 -1 -45 -20 -45 -12 0 -22 -29 -28 -77 -3 -26 -18 -12 -18 17 0 17 -9 38
-22 50 -22 20 -23 20 -27 3 -2 -10 -8 -21 -15 -25 -7 -5 -5 -8 6 -8 26 0 34
-46 14 -69 -9 -10 -16 -24 -14 -31 2 -6 -4 -15 -12 -19 -8 -5 -26 -14 -39 -20
-17 -10 -26 -10 -31 -1 -5 8 -11 6 -20 -5 -7 -8 -22 -15 -34 -15 -24 0 -72
-55 -57 -64 10 -7 -1 -72 -16 -101 -7 -11 -21 -28 -32 -37 -21 -18 -21 -17
-21 19 0 50 -15 32 -16 -20 -1 -23 -5 -52 -9 -64 -6 -18 -3 -23 9 -23 20 0 20
-10 1 -36 -8 -10 -15 -24 -15 -31 0 -6 -21 -55 -46 -107 -38 -79 -45 -104 -42
-141 2 -29 -1 -46 -9 -50 -7 -2 -13 -15 -13 -27 0 -13 4 -18 8 -13 4 6 16 17
27 25 19 14 19 14 3 -6 -10 -11 -22 -43 -28 -72 -7 -29 -16 -52 -21 -52 -13 0
-11 27 6 63 8 18 10 24 3 13 -7 -10 -33 -48 -57 -85 -24 -36 -49 -71 -57 -77
-7 -5 -16 -22 -19 -37 -6 -21 -4 -27 9 -27 9 0 16 4 16 9 0 18 73 130 82 125
5 -3 6 -20 4 -37 -14 -89 -17 -147 -7 -147 5 0 12 8 14 18 4 13 5 11 6 -5 0
-13 -3 -23 -7 -23 -14 0 -30 -66 -24 -96 3 -16 14 -37 24 -49 17 -17 19 -30
14 -88 -3 -37 -11 -78 -18 -90 -7 -13 -11 -57 -10 -107 1 -52 -3 -97 -11 -115
-11 -25 -11 -34 2 -57 11 -19 13 -30 5 -38 -8 -8 -15 4 -27 41 -17 51 -17 52
3 66 16 12 20 25 20 78 0 35 -5 76 -12 90 -9 21 -9 28 1 34 9 6 10 11 2 15
-12 8 -26 -37 -17 -53 3 -5 1 -11 -6 -13 -9 -3 -8 -9 5 -22 30 -30 19 -126
-15 -126 -4 0 -12 15 -18 33 l-10 32 4 -40 c3 -37 -10 -78 -56 -168 -6 -12 -5
-23 1 -30 17 -22 -56 -84 -85 -73 -8 3 -17 -1 -20 -9 -4 -8 -12 -15 -20 -15
-8 0 -14 -10 -14 -24 0 -22 -29 -60 -31 -40 0 5 -4 -1 -9 -14 -5 -12 -22 -28
-37 -34 -15 -7 -34 -19 -42 -26 -9 -9 -17 -10 -24 -3 -6 6 -18 -2 -33 -25 -13
-19 -24 -40 -24 -46 0 -19 -249 -270 -346 -349 -23 -19 -56 -55 -74 -81 -18
-26 -41 -55 -51 -64 -11 -9 -19 -28 -19 -41 0 -21 12 -12 77 59 91 97 122 127
191 187 28 24 54 52 57 62 4 11 13 19 21 19 8 0 12 5 9 10 -3 6 1 10 9 10 8 0
20 10 27 23 15 29 70 87 83 87 5 0 26 17 45 38 20 22 77 69 126 105 50 37 98
73 108 82 22 19 37 19 37 0 0 -9 -10 -20 -22 -25 -13 -5 -17 -9 -10 -9 20 -1
14 -29 -9 -41 -11 -7 -27 -9 -35 -6 -8 3 -14 1 -14 -4 0 -6 11 -10 25 -10 33
0 31 -7 -10 -54 -25 -27 -32 -42 -25 -51 5 -6 7 -15 3 -19 -4 -4 8 0 27 8 19
7 37 21 40 30 8 23 121 105 142 103 15 -1 18 -7 13 -24 -3 -13 -1 -23 5 -23 5
0 9 -3 9 -7 -4 -27 1 -35 16 -23 13 11 13 8 0 -29 -8 -23 -16 -54 -18 -69 -3
-19 -15 -32 -47 -49 -24 -13 -40 -23 -35 -23 4 0 2 -7 -5 -15 -8 -10 -20 -13
-34 -9 -19 6 -20 5 -6 -11 14 -17 13 -18 -12 -11 -16 3 -28 2 -28 -2 0 -5 -12
-22 -27 -37 l-28 -28 25 7 c24 7 23 6 -8 -23 -18 -17 -37 -31 -42 -31 -17 0
-11 28 8 40 15 9 14 10 -5 5 -19 -5 -23 -2 -23 16 0 22 0 22 -23 -3 -13 -14
-28 -27 -35 -29 -6 -2 -21 -19 -34 -38 -16 -24 -38 -40 -71 -51 -27 -10 -57
-24 -67 -32 -23 -20 -87 -41 -100 -33 -6 3 -7 -1 -4 -10 9 -22 -26 -57 -92
-90 -30 -15 -60 -35 -67 -44 -20 -27 -91 -78 -103 -74 -6 2 -23 -8 -37 -23
-24 -23 -27 -35 -27 -90 l0 -64 26 10 c42 16 51 11 19 -10 -20 -14 -25 -20
-13 -20 9 0 19 4 22 9 3 5 15 7 27 4 11 -3 30 -1 42 5 32 15 68 22 61 11 -3
-5 -15 -9 -27 -9 -16 0 -18 -3 -10 -11 15 -15 56 1 97 36 16 14 37 25 48 25
10 0 18 4 18 9 0 6 8 10 18 10 19 0 124 23 132 28 2 2 -2 8 -10 13 -11 7 -8
10 12 10 36 0 27 -28 -11 -35 -48 -10 -136 -39 -150 -49 -35 -27 -147 -73
-157 -65 -8 6 -13 0 -17 -20 -3 -15 -14 -31 -24 -34 -10 -4 -28 -14 -40 -23
-22 -16 -23 -16 -21 10 1 14 6 27 10 27 4 1 13 2 20 3 6 0 13 7 16 14 3 10 -4
10 -28 -3 -17 -9 -38 -14 -46 -11 -10 4 -14 -3 -14 -25 0 -24 4 -30 15 -25 8
3 15 1 15 -5 0 -5 -7 -12 -15 -15 -11 -5 -15 -23 -15 -71 l0 -65 33 21 c17 11
51 30 75 42 23 12 42 25 42 30 0 5 9 9 21 9 12 0 17 4 14 11 -5 7 5 8 30 3 27
-5 36 -4 31 5 -5 7 3 11 23 11 21 0 31 5 31 15 0 9 6 12 15 9 8 -4 32 1 53 9
59 23 140 31 159 15 13 -10 17 -10 20 0 5 14 32 16 51 4 19 -13 -1 -58 -35
-76 -26 -14 -27 -15 -5 -16 22 0 32 -20 10 -20 -7 0 -2 -7 10 -16 13 -9 19
-20 15 -27 -4 -7 0 -7 10 1 14 12 17 10 23 -12 3 -14 12 -26 20 -26 7 0 11 6
9 13 -3 6 0 19 5 27 9 13 11 13 20 0 7 -11 9 -3 5 26 -6 52 13 73 49 56 13 -6
27 -8 31 -4 3 4 25 12 48 19 32 9 44 9 56 0 11 -9 15 -9 18 1 3 6 8 12 13 12
10 0 6 -97 -5 -122 -4 -9 -4 -21 -1 -26 3 -5 -7 -9 -22 -8 -23 1 -27 5 -25 29
1 15 -2 27 -8 27 -5 0 -9 -10 -9 -22 -1 -22 -1 -23 -15 -4 -8 11 -15 32 -15
48 0 35 -16 37 -22 3 -3 -14 -2 -25 2 -25 8 0 11 -17 14 -75 1 -22 4 -45 7
-50 6 -11 4 -74 -2 -77 -2 -1 -17 6 -32 16 -15 11 -30 16 -34 12 -3 -3 0 -6 7
-6 9 0 6 -8 -9 -23 -13 -15 -19 -30 -15 -40 3 -10 1 -17 -5 -17 -18 0 -13 -25
10 -46 14 -12 19 -26 16 -43 -3 -16 1 -30 11 -37 14 -11 15 -15 4 -26 -11 -11
-15 -10 -23 4 -15 27 -58 4 -59 -30 0 -8 5 -10 13 -6 8 5 8 2 -2 -9 -7 -9 -20
-17 -28 -17 -9 0 -13 -6 -9 -15 3 -9 0 -15 -9 -15 -8 0 -15 -5 -15 -11 0 -6
-11 -25 -25 -41 -14 -16 -22 -34 -19 -39 8 -13 -57 -76 -82 -81 -10 -2 -25
-16 -33 -32 -10 -22 -15 -25 -22 -15 -7 11 -9 10 -9 -5 0 -18 -26 -45 -43 -46
-7 0 -29 44 -31 63 -1 4 -4 7 -8 7 -5 0 -13 0 -20 0 -6 0 -3 -6 7 -14 18 -13
18 -14 -3 -49 -13 -23 -17 -39 -11 -43 6 -4 2 -14 -10 -25 -12 -11 -21 -25
-21 -30 0 -6 -7 -8 -16 -5 -10 4 -25 -1 -36 -10 -17 -16 -19 -16 -32 1 -12 17
-14 16 -35 -14 -23 -32 -49 -39 -69 -19 -7 7 -12 8 -12 4 0 -5 -6 -3 -14 3
-17 14 -49 3 -42 -15 5 -14 -17 -37 -27 -27 -4 3 -7 -2231 -7 -4965 l0 -4972
6625 0 6625 0 0 1350 c0 1138 -2 1354 -14 1382 -23 55 -70 219 -78 278 -4 30
-12 111 -18 180 -6 69 -24 189 -40 268 -32 153 -76 256 -165 387 -78 116 -85
132 -95 229 -18 182 -43 223 -238 395 -45 40 -82 77 -82 83 0 6 -25 60 -56
122 -48 97 -64 119 -124 171 -69 61 -86 89 -111 189 -14 55 -64 116 -95 116
-14 0 -22 4 -19 10 3 5 0 7 -8 4 -8 -3 -20 3 -28 12 -9 11 -9 15 -2 10 9 -5
11 -2 6 9 -3 9 -9 12 -12 7 -8 -13 -38 -9 -85 12 -22 9 -50 19 -62 22 -12 3
-25 12 -27 18 -3 7 -23 16 -44 19 -63 10 -71 12 -215 51 -108 28 -144 44 -184
81 -27 25 -51 34 -39 15 3 -6 1 -10 -4 -10 -6 0 -11 6 -11 13 0 6 -19 24 -43
39 -23 15 -73 57 -111 93 -64 62 -70 66 -78 46 -10 -27 -19 -27 -48 4 -13 14
-33 26 -44 26 -17 1 -18 2 -4 6 10 2 28 -3 40 -11 12 -9 26 -16 31 -16 13 0
-40 70 -76 101 -31 27 -39 39 -136 216 -29 54 -55 99 -56 101 -9 10 -46 -24
-86 -79 -24 -34 -61 -80 -82 -103 -50 -54 -71 -92 -54 -100 6 -3 -2 -5 -20 -3
-18 2 -30 0 -28 -4 9 -13 -129 -138 -140 -127 -6 5 92 105 110 111 25 10 18
37 -11 37 -16 0 -23 4 -18 12 4 6 3 9 -2 6 -14 -9 -151 17 -168 32 -9 7 -57
21 -108 32 -51 11 -133 28 -183 39 -49 11 -107 22 -127 26 -21 3 -38 8 -38 12
0 3 -10 7 -22 7 -20 1 -117 26 -298 78 -34 10 -65 27 -83 46 -27 29 -44 40
-33 21 15 -24 -64 -13 -89 12 -7 7 -6 8 3 3 7 -5 12 -1 12 10 0 21 90 105 103
97 6 -3 7 -1 3 5 -4 6 0 22 8 35 19 28 29 187 12 187 -6 0 -33 32 -60 72 -27
39 -43 68 -35 63 11 -6 12 -5 2 6 -21 22 -16 59 7 59 11 0 20 -6 20 -13 0 -8
7 -14 15 -14 8 0 15 6 15 14 0 7 3 12 8 12 18 -3 32 2 32 12 0 5 -4 7 -10 4
-5 -3 -10 -2 -10 4 0 14 -73 27 -78 13 -4 -12 -55 -5 -60 9 -2 5 -8 7 -12 4
-5 -3 -16 8 -25 26 -9 17 -12 28 -6 25 6 -4 11 -2 11 4 0 6 5 8 10 5 6 -3 10
-11 10 -16 0 -6 -5 -7 -12 -3 -6 4 -8 3 -5 -4 8 -11 25 -11 45 2 10 6 10 11 1
22 -6 7 -15 11 -21 8 -5 -3 -16 0 -25 8 -12 9 -15 9 -9 0 4 -6 2 -12 -3 -12
-6 0 -11 5 -11 10 0 6 -7 10 -15 10 -7 0 -18 6 -22 14 -4 7 -18 18 -30 25 -13
6 -32 30 -43 53 -24 50 -24 48 -5 48 8 0 57 38 109 85 96 87 124 100 133 65 3
-13 14 -20 29 -20 24 0 41 -16 29 -28 -3 -3 -10 0 -14 7 -6 8 -14 10 -22 5
-19 -12 -21 -47 -4 -40 8 3 16 -3 18 -12 4 -15 5 -15 6 1 1 15 3 16 15 5 18
-16 11 -28 -16 -28 -19 0 -18 -2 8 -22 16 -13 32 -22 36 -20 13 4 45 -33 51
-60 8 -31 37 -33 37 -2 0 13 4 25 9 29 5 3 7 20 4 38 -3 17 -6 59 -6 92 -1 33
-5 65 -8 70 -4 6 -9 35 -10 65 -2 30 -10 60 -17 65 -10 8 -7 16 17 38 17 15
37 27 45 27 25 0 46 12 46 25 0 7 -8 12 -17 10 -10 -2 -22 -4 -26 -4 -5 -1 -5
-6 -2 -11 9 -15 -11 -12 -24 4 -9 10 -5 20 16 43 16 16 36 32 46 36 9 3 17 10
17 15 0 13 107 14 115 2 10 -16 22 -12 22 8 0 9 -7 22 -15 28 -9 6 -17 20 -18
32 -3 16 1 19 16 15 14 -4 23 2 31 21 7 14 18 26 25 26 8 0 12 13 12 33 -1 42
5 62 23 84 9 10 22 34 29 53 32 82 90 140 70 70 -5 -18 -5 -32 1 -35 11 -7 15
5 23 61 3 22 13 54 21 71 9 18 19 55 22 83 4 34 12 55 25 65 12 8 22 29 24 52
3 21 17 63 32 93 21 42 27 68 26 115 -1 33 3 63 9 66 14 9 46 106 49 146 1 18
5 33 9 33 4 0 9 12 11 28 2 16 8 26 16 24 13 -2 51 35 52 52 0 4 -6 6 -14 3
-9 -4 -16 3 -20 16 -16 58 3 78 26 27 7 -16 16 -30 20 -30 15 0 18 20 6 39
-10 16 -10 23 0 33 6 6 12 27 12 45 0 21 6 36 15 39 8 4 15 12 15 20 0 8 6 14
13 14 16 0 49 -54 39 -65 -4 -5 -2 -5 4 -2 16 9 12 119 -4 125 -7 2 -12 -5
-12 -17 0 -12 -4 -21 -10 -21 -18 0 -10 40 10 52 14 9 20 24 20 48 0 23 3 30
9 22 4 -8 7 -30 5 -51 -2 -27 6 -51 30 -89 18 -29 35 -49 39 -46 4 4 7 2 7 -4
0 -7 -5 -12 -10 -12 -22 0 -3 -51 30 -81 l35 -30 6 78 c4 43 10 87 14 99 4 13
1 27 -9 37 -18 17 -22 77 -6 77 6 0 15 -12 21 -27 20 -58 22 -60 26 -40 3 10
0 23 -5 30 -14 17 4 57 25 57 14 0 11 5 -12 24 -27 22 -31 22 -43 7 -8 -9 -10
-10 -6 -2 4 8 9 28 11 45 8 71 16 107 24 112 16 9 10 53 -8 63 -12 7 -13 11
-5 11 8 0 12 8 10 17 -3 18 40 68 50 58 3 -3 0 -11 -6 -17 -13 -13 -17 -58 -4
-58 4 0 16 20 26 44 11 25 23 43 27 41 3 -3 7 7 7 20 0 18 -6 25 -19 25 -12 0
-19 -7 -19 -20 0 -11 -5 -20 -11 -20 -21 0 -1 93 24 112 29 23 39 22 35 0 -4
-23 16 -29 20 -7 5 22 -16 45 -35 38 -13 -5 -15 -1 -9 23 4 16 14 36 21 44 8
9 16 34 17 57 2 27 7 39 16 36 6 -3 12 -9 12 -14 0 -5 4 -9 10 -9 5 0 7 7 4
15 -4 8 -1 15 6 15 6 0 2 12 -10 27 -18 23 -19 28 -5 35 8 5 15 16 15 23 0 8
4 15 10 15 5 0 7 7 4 15 -10 24 10 17 21 -7 6 -13 16 -22 23 -21 6 2 9 -4 6
-12 -4 -8 -1 -15 5 -15 6 0 11 -7 11 -15 0 -21 -13 -19 -30 5 -8 11 -18 20
-22 20 -15 0 -8 -18 19 -44 20 -20 24 -29 15 -38 -19 -19 -15 -49 5 -41 13 5
15 3 8 -13 -4 -10 -10 -31 -13 -47 -2 -15 -8 -30 -13 -33 -14 -8 -11 -24 5
-24 8 0 17 -7 20 -16 3 -8 10 -13 15 -10 9 6 5 101 -5 117 -3 5 4 9 15 9 12 0
21 -6 21 -14 0 -27 20 -28 30 -2 10 26 50 44 71 31 7 -5 10 -3 7 6 -3 8 -11
14 -19 14 -8 0 -26 11 -41 25 -20 19 -26 34 -25 59 3 53 22 47 48 -14 12 -30
28 -55 34 -55 14 0 45 -32 45 -47 0 -6 -14 -13 -31 -17 l-30 -6 18 -32 c10
-18 24 -41 32 -51 12 -15 13 -20 2 -26 -9 -6 -10 -11 -2 -15 6 -4 16 -4 21 -1
14 9 12 35 -3 41 -7 2 -13 20 -13 38 0 27 2 31 13 20 7 -7 10 -20 7 -29 -4
-10 1 -22 15 -31 11 -8 21 -24 21 -34 0 -23 16 -35 23 -18 3 9 9 7 20 -6 16
-21 16 -52 0 -49 -21 4 3 -62 25 -72 25 -11 27 -18 12 -46 -8 -13 -7 -25 0
-39 10 -19 4 -25 -22 -21 -5 0 -8 -4 -8 -10 0 -6 6 -9 14 -6 10 4 16 -5 20
-28 4 -19 14 -42 23 -51 19 -19 26 -71 25 -197 0 -79 -3 -90 -21 -104 l-22
-15 21 -32 c11 -18 18 -35 15 -38 -3 -2 -7 -45 -9 -94 l-4 -90 39 2 40 2 -6
-132 c-4 -72 -6 -143 -6 -158 0 -15 -4 -30 -9 -33 -13 -8 -13 -45 0 -45 6 0
10 5 10 10 0 6 9 10 21 10 17 0 20 -4 15 -24 -4 -18 -1 -29 13 -38 14 -10 19
-28 21 -78 4 -99 2 -113 -16 -106 -9 3 -25 -5 -41 -22 -14 -15 -29 -26 -34
-24 -9 2 -13 -19 -10 -46 1 -6 -3 -12 -9 -12 -6 0 -8 -10 -4 -25 4 -18 2 -25
-9 -25 -8 0 -18 -7 -21 -16 -9 -22 -8 -24 9 -24 8 0 15 5 15 11 0 6 7 8 16 5
8 -3 13 -2 10 3 -3 5 6 21 19 37 14 16 23 34 21 41 -6 14 50 93 65 93 8 0 9
-21 4 -67 -3 -38 -8 -90 -10 -118 -11 -138 -24 -207 -42 -227 -10 -11 -13 -26
-9 -42 3 -14 2 -44 -4 -68 -5 -24 -14 -70 -20 -102 -5 -33 -16 -63 -23 -68 -8
-5 -8 -8 -1 -8 13 0 0 -62 -36 -175 -12 -38 -23 -79 -25 -90 -4 -28 -34 -117
-44 -130 -15 -19 -30 -75 -20 -75 18 0 9 -42 -10 -47 -12 -3 -25 -21 -34 -47
-8 -22 -26 -59 -41 -80 -14 -21 -26 -45 -26 -53 0 -8 -14 -28 -31 -44 -18 -16
-29 -33 -25 -36 3 -4 13 2 21 13 14 18 15 17 9 -11 -4 -16 -15 -46 -26 -65
-29 -55 -21 -59 15 -9 42 59 122 221 152 309 9 24 22 54 29 65 7 11 23 52 36
90 12 39 29 80 36 92 8 12 16 41 19 63 3 23 11 50 18 61 9 14 9 22 1 27 -8 5
-3 37 17 107 24 89 75 317 86 385 11 77 23 179 22 208 0 18 4 38 8 45 4 7 8
14 8 17 12 74 19 177 17 258 -1 63 2 100 8 97 6 -4 10 -3 11 2 0 4 2 16 4 25
4 20 -11 24 -18 6 -3 -8 -6 -6 -6 5 -1 9 4 17 9 17 6 0 9 3 9 8 -4 22 3 52 14
64 14 15 15 57 2 78 -11 18 -7 63 6 71 16 9 32 571 18 619 -6 20 -7 21 -8 5
-1 -17 -3 -17 -11 -5 -14 21 -12 104 2 118 9 9 9 12 0 12 -10 0 -12 32 -11
128 1 71 -1 135 -6 142 -5 7 -7 40 -6 72 3 66 -5 101 -21 92 -8 -5 -9 1 -4 17
4 13 7 37 7 53 -1 15 4 35 10 42 6 8 9 20 6 28 -3 7 -1 18 5 24 6 6 7 22 3 39
-5 15 -7 49 -6 76 2 29 -1 47 -8 47 -6 0 -11 -15 -12 -32 0 -18 -2 -42 -5 -53
-2 -11 -7 -60 -10 -110 -3 -49 -8 -93 -10 -97 -9 -14 -36 -9 -28 5 4 6 0 5 -9
-3 -11 -11 -14 -28 -10 -67 3 -29 9 -50 13 -48 4 3 11 -3 14 -12 4 -10 4 -14
0 -11 -12 13 -34 -20 -34 -51 0 -34 -16 -51 -17 -18 -2 109 -8 121 -23 55 -6
-25 -8 -15 -9 46 -1 85 -5 89 -27 29 l-15 -38 6 37 c5 31 3 37 -10 32 -11 -4
-14 -2 -9 9 3 8 7 37 8 63 2 27 9 85 16 130 9 57 10 86 2 100 -8 14 -6 21 6
30 14 10 14 16 4 39 -9 20 -10 31 -2 40 11 14 8 96 -5 128 -4 9 -5 26 -2 37 3
11 1 23 -4 26 -6 3 -7 15 -4 25 10 32 13 163 4 169 -14 9 -8 203 8 240 6 14 8
29 5 35 -3 5 -7 4 -10 -3 -7 -21 -17 -13 -18 16 -1 15 -5 48 -9 75 -7 42 -6
47 9 41 12 -5 16 0 16 20 0 14 -5 26 -12 26 -6 0 -3 9 7 20 32 35 47 26 41
-25 -3 -25 -8 -56 -12 -70 -5 -20 -3 -24 10 -19 13 5 16 -1 16 -27 1 -33 1
-33 16 -14 12 15 14 34 9 80 -4 33 -3 57 1 52 6 -6 9 -18 13 -62 1 -5 5 -4 10
4 6 9 12 -8 19 -50 22 -133 25 -159 13 -159 -6 0 -11 15 -12 33 -1 17 -5 43
-10 57 -5 16 -7 -3 -4 -55 2 -44 4 -87 5 -95 0 -12 3 -11 14 3 21 27 25 11 25
-99 -1 -168 1 -214 10 -237 9 -22 9 -22 20 5 12 31 14 75 6 133 -6 37 -5 39 9
21 16 -19 16 -19 16 5 0 13 7 46 15 72 8 28 12 65 9 90 -4 23 -8 96 -9 162 -4
132 -29 266 -93 503 -16 56 -17 72 -7 68 15 -5 14 15 -1 35 -6 8 -14 23 -19
34 -5 13 -9 15 -12 7 -3 -6 -9 -9 -14 -6 -6 4 -6 10 0 18 11 13 1 72 -23 126
-13 29 -15 31 -16 12 0 -13 4 -31 9 -40 15 -30 23 -74 11 -67 -5 3 -10 15 -10
25 0 11 -9 24 -19 29 -17 9 -18 8 -14 -12 3 -12 9 -26 13 -32 8 -13 45 -107
46 -120 0 -5 4 -18 7 -27 14 -38 16 -49 9 -44 -5 3 -21 38 -37 78 -16 40 -36
82 -46 93 -9 11 -20 31 -24 45 -4 14 -18 48 -31 77 -27 58 -29 67 -12 57 6 -4
8 -3 5 4 -4 5 -17 8 -28 5 -18 -5 -20 -3 -15 15 4 13 -2 38 -18 69 -24 46 -73
154 -102 221 -22 51 -8 38 34 -33 21 -36 41 -62 44 -59 4 3 9 -5 13 -18 7 -25
16 -46 66 -155 18 -40 36 -73 41 -73 8 0 0 28 -13 45 -4 6 -7 24 -5 40 3 28
-3 50 -26 102 -6 11 -9 26 -6 33 2 6 16 -21 32 -62 16 -40 35 -77 42 -81 8 -4
14 -14 14 -21 0 -7 11 -30 25 -50 14 -20 28 -48 31 -61 3 -14 11 -25 16 -25
13 0 0 72 -15 83 -9 6 -9 10 1 14 17 7 15 33 -2 33 -23 0 -53 46 -74 113 -25
78 -27 117 -7 117 18 0 20 71 4 140 -6 25 -12 72 -14 105 -1 33 -5 78 -9 100
-3 22 -3 32 0 22 5 -17 15 -30 62 -80 16 -18 17 -16 20 35 3 75 11 107 22 88
10 -18 29 -142 34 -227 2 -34 7 -66 10 -71 3 -5 1 -23 -4 -41 -9 -32 -9 -35
-11 -48 0 -5 -4 2 -9 15 -5 12 -14 22 -19 22 -5 0 -3 -12 5 -27 7 -16 14 -39
14 -53 0 -14 4 -43 8 -65 7 -38 7 -37 13 30 9 88 18 126 36 147 12 14 14 33 8
100 -4 46 -9 101 -10 123 -1 22 -10 53 -18 70 -11 19 -13 31 -6 36 16 10 -1
99 -22 120 -11 11 -19 30 -19 43 0 14 -4 28 -10 31 -5 3 -10 13 -10 22 0 13 2
13 17 2 15 -13 15 -12 4 9 -6 12 -16 22 -21 22 -6 0 -10 7 -10 15 0 8 5 15 10
15 7 0 7 6 2 18 -14 27 -23 72 -15 72 9 0 63 -74 63 -85 0 -4 -8 -1 -17 6 -15
13 -16 11 -9 -11 7 -23 17 -66 31 -127 8 -36 25 -27 25 13 0 24 4 33 12 28 7
-4 8 -3 4 5 -4 6 -11 9 -16 6 -4 -3 -11 2 -14 11 -8 21 -8 26 3 20 5 -3 11 3
14 14 3 11 0 18 -6 17 -6 -1 -13 8 -15 20 -2 12 -10 27 -18 33 -8 7 -14 19
-14 26 0 8 -4 14 -9 14 -5 0 -13 9 -16 20 -3 11 -13 20 -21 20 -8 0 -14 5 -14
11 0 5 5 7 10 4 16 -10 11 7 -15 50 -13 22 -33 57 -44 77 -12 20 -26 40 -31
43 -7 5 -5 12 7 20 13 10 15 16 6 26 -5 8 -9 35 -8 61 1 26 -2 45 -6 42 -5 -3
-9 -1 -9 4 0 5 -9 12 -20 15 -11 3 -20 10 -20 17 0 6 6 8 13 5 6 -4 5 -1 -3 7
-9 7 -28 35 -44 62 -22 38 -25 50 -15 57 7 4 17 5 21 3 4 -3 8 1 8 9 0 15 -29
23 -122 33 -27 3 -48 10 -48 15 0 5 13 6 30 3 41 -9 87 3 71 19 -6 6 -11 18
-11 26 0 12 3 12 12 3 16 -16 28 -15 28 3 0 8 -4 15 -10 15 -5 0 -10 5 -10 10
0 6 10 10 22 10 l22 0 -22 16 c-12 8 -20 20 -17 25 4 5 1 10 -4 10 -6 1 -15 2
-20 3 -16 2 -27 17 -61 84 -18 34 -41 67 -51 73 -11 5 -16 15 -13 21 4 7 3 8
-4 4 -9 -5 -4 -18 15 -43 l27 -35 -25 4 c-19 2 -26 11 -33 47 -9 41 -11 43
-40 38 -17 -2 -37 -2 -43 0 -17 6 -16 34 2 59 8 12 11 25 7 29 -4 5 -1 5 6 1
6 -4 12 -2 12 3 0 6 4 11 10 11 5 0 7 -7 4 -15 -4 -8 -1 -15 5 -15 6 0 10 -5
9 -11 -4 -17 33 -37 39 -21 3 6 9 10 14 6 5 -3 9 3 9 13 0 10 7 29 16 42 l16
23 20 -33 c15 -25 17 -37 9 -55 -8 -17 -6 -24 5 -28 10 -4 13 -13 9 -25 -3
-11 -1 -22 5 -26 5 -3 10 -14 10 -25 0 -20 29 -36 31 -17 5 44 4 69 -3 73 -4
3 -8 15 -8 27 0 13 -7 33 -16 45 -9 13 -15 40 -14 65 2 46 -8 87 -21 87 -15 0
-5 45 18 79 13 19 23 39 23 45 0 6 7 25 16 41 16 31 26 65 19 65 -3 0 -16 -23
-31 -52 -14 -28 -32 -58 -40 -66 -8 -7 -14 -20 -14 -28 0 -8 -7 -14 -15 -14
-8 0 -15 7 -15 15 0 8 -4 15 -10 15 -5 0 -10 7 -10 15 0 9 -8 27 -17 41 -16
24 -18 25 -30 9 -11 -17 -13 -16 -23 9 -5 15 -10 34 -10 42 0 8 -7 14 -15 14
-19 0 -38 37 -32 61 3 10 1 19 -5 19 -6 0 -8 9 -5 20 3 12 -1 23 -10 29 -10 5
-13 13 -7 22 12 19 5 51 -13 65 -13 9 -15 22 -9 62 6 46 5 51 -10 45 -15 -5
-16 1 -12 51 3 32 10 61 17 65 6 4 11 21 10 37 -1 16 1 36 5 45 10 24 -20 50
-50 43 -14 -4 -24 -2 -24 5 0 18 -45 12 -68 -9 -12 -12 -39 -23 -59 -25 -21
-3 -56 -9 -78 -15 -32 -8 -47 -7 -77 8 -21 9 -38 21 -38 25 0 5 5 5 12 1 7 -4
8 -3 4 4 -4 6 -14 8 -24 5 -9 -3 -14 -3 -10 2 4 4 3 14 -3 22 -9 10 -8 17 1
28 14 16 11 18 -44 19 -30 1 -36 8 -56 64 -12 31 -40 45 -40 20 0 -9 -3 -9
-11 -1 -15 15 9 50 43 62 31 11 37 28 13 37 -8 4 -15 14 -15 24 0 33 -12 50
-35 50 -28 0 -51 26 -60 67 -5 27 -9 31 -19 20 -32 -32 -29 -57 13 -107 32
-38 41 -56 39 -82 -1 -18 -3 -36 -5 -41 -8 -15 -61 27 -66 52 -13 65 -34 117
-55 138 -30 30 -27 69 5 66 17 -2 24 4 29 22 7 28 14 31 32 13 9 -9 12 -3 12
30 0 36 -3 42 -20 42 -15 0 -22 9 -27 30 -3 17 -14 35 -24 41 -22 11 -25 2 -5
-20 19 -22 30 -61 17 -61 -5 0 -21 5 -35 12 -22 9 -25 17 -23 52 1 24 7 40 14
39 6 -1 10 9 9 22 0 14 -5 25 -10 25 -5 0 -6 14 -2 30 3 17 1 30 -4 30 -6 0
-10 -6 -10 -12 -1 -7 -7 1 -14 17 -12 30 -13 30 -24 8 -7 -12 -12 -32 -12 -44
0 -12 -2 -20 -5 -17 -8 7 -16 71 -19 153 -2 43 -13 97 -29 140 -14 41 -27 102
-30 145 -3 41 -12 89 -21 105 -9 17 -16 37 -16 46 0 16 -56 100 -150 224 -29
38 -57 82 -62 97 -6 16 -15 28 -21 28 -16 1 -85 71 -89 90 -2 8 -12 22 -23 31
-10 9 -20 29 -20 45 -1 15 -9 33 -19 38 -33 21 -107 97 -102 105 3 5 -1 14 -9
21 -9 7 -13 21 -10 31 6 19 -9 34 -25 24 -6 -4 -5 -13 2 -25 7 -11 9 -22 5
-26 -9 -9 -37 15 -37 32 0 16 -36 55 -48 51 -22 -6 -122 98 -122 128 0 15 32
2 55 -22 18 -21 25 -24 25 -12 0 9 -7 22 -15 29 -8 7 -13 15 -10 19 2 4 -5 20
-16 37 -10 16 -19 37 -19 47 0 9 -5 17 -11 17 -5 0 -8 -4 -5 -9 3 -5 -1 -12
-10 -15 -9 -3 -35 10 -65 32 -35 26 -45 38 -34 40 9 2 14 10 11 18 -3 8 -1 14
4 14 22 0 8 35 -28 69 -21 20 -50 52 -65 71 -23 29 -29 32 -37 20 -9 -12 -20
-5 -63 40 -28 31 -77 68 -107 84 -30 15 -64 37 -76 47 -11 10 -26 19 -32 19
-7 0 -12 6 -12 14 0 7 -14 16 -30 20 -26 5 -30 9 -24 30 4 18 -2 31 -30 58
-42 41 -45 52 -11 44 31 -8 32 6 4 45 -15 22 -26 28 -41 23 -16 -5 -19 -2 -16
17 2 12 -3 24 -9 26 -7 3 -13 0 -13 -6 0 -6 -7 -11 -15 -11 -8 0 -15 5 -15 10
0 6 5 10 11 10 5 0 7 5 4 10 -3 6 -15 10 -25 10 -23 0 -37 24 -46 79 -4 22
-11 41 -16 41 -5 0 -6 -4 -3 -10 3 -5 3 -26 -1 -45 l-6 -35 -19 32 c-11 18
-27 50 -37 70 -13 28 -22 36 -37 33 -11 -2 -30 -4 -43 -4 -13 -1 -21 -5 -18
-9 3 -5 -18 -5 -47 -2 -28 4 -59 5 -69 2 -10 -2 -24 0 -31 6 -10 8 -77 15 -77
8 0 -2 7 -17 15 -34 15 -28 18 -30 48 -21 47 13 57 11 57 -11 0 -30 -45 -45
-73 -25 -12 8 -34 15 -49 15 -19 0 -26 4 -22 14 3 8 -7 18 -25 26 -20 8 -31
20 -31 32 0 12 -6 18 -16 16 -10 -2 -19 3 -21 10 -3 7 1 10 11 6 17 -6 23 20
8 30 -16 9 -53 -6 -48 -20 3 -7 1 -16 -4 -19 -15 -9 -12 -35 7 -53 16 -16 15
-17 -3 -21 -10 -2 -24 -8 -31 -13 -7 -5 -16 -7 -22 -4 -5 3 -15 -7 -23 -24 -7
-16 -15 -30 -18 -30 -9 0 -80 37 -95 50 -8 7 -44 13 -80 15 -46 1 -71 7 -85
20 -19 17 -20 17 -29 -6 l-9 -24 -13 30 c-9 23 -13 26 -16 13 -6 -26 -26 -22
-40 8 -15 32 -8 47 18 39 23 -7 24 4 5 30 -14 19 -15 18 -33 -13 -18 -31 -40
-45 -30 -18 4 10 0 12 -14 9 -11 -3 -22 -9 -25 -14 -3 -5 2 -6 10 -3 10 4 16
1 16 -9 0 -15 -20 -27 -46 -27 -10 0 -14 8 -12 23 3 19 -1 22 -25 19 -15 -2
-34 2 -42 8 -9 7 -31 9 -60 6 -26 -4 -54 -2 -66 5 -23 12 -73 4 -64 -11 9 -14
-9 -12 -23 2 -9 9 -15 9 -24 0 -19 -19 -29 -14 -16 8 20 32 -10 46 -38 19 -14
-13 -24 -17 -29 -10 -3 6 -15 11 -26 11 -12 0 -19 7 -19 20 0 24 -8 25 -34 5
-11 -8 -28 -15 -38 -15 -10 0 -18 -6 -18 -13 0 -15 -81 -17 -92 -2 -4 5 -10 2
-13 -7 -6 -16 -9 -16 -41 -1 -25 13 -33 21 -28 35 7 24 -7 23 -30 -3 -15 -18
-20 -19 -27 -8 -7 12 -9 12 -9 0 0 -10 -3 -11 -13 -3 -7 6 -18 7 -27 2 -8 -5
-22 -2 -37 7 -15 10 -34 13 -53 9 -17 -3 -42 0 -58 6 -15 6 -36 12 -46 12 -11
1 -21 7 -23 14 -3 6 -12 12 -20 12 -8 0 -31 14 -50 30 -19 17 -38 28 -43 25
-5 -3 -18 8 -30 25 -24 34 -47 42 -30 11 14 -26 14 -26 -18 -26 -16 0 -53 11
-83 24 -83 36 -93 40 -114 43 -11 2 -25 10 -32 18 -8 9 -12 11 -13 3 0 -21
-34 -19 -86 3 -46 20 -120 40 -135 37 -3 -1 -11 8 -18 19 -12 19 -11 20 8 15
12 -3 21 -1 21 4 0 5 -9 9 -19 9 -11 0 -26 3 -35 6 -23 9 -20 -22 5 -47 11
-11 26 -19 32 -17 7 2 26 -9 42 -25 17 -16 24 -26 18 -23 -7 4 -13 3 -13 -2 0
-13 -47 -2 -61 14 -9 11 -9 14 0 14 7 0 9 5 6 10 -3 6 -14 10 -23 10 -9 0 -30
7 -46 15 -15 8 -38 15 -50 15 -11 1 -43 7 -69 14 -28 7 -68 10 -98 6 -41 -5
-50 -4 -54 11 -7 20 -22 27 -47 21z m-3886 -4098 c-18 -8 -37 -12 -43 -9 -5 4
-14 3 -20 -1 -8 -5 -8 -9 1 -14 9 -6 6 -10 -9 -15 -11 -3 -21 -10 -21 -15 0
-15 36 -21 65 -10 15 6 30 8 33 5 3 -2 11 0 18 6 20 16 32 3 31 -35 -1 -28 -6
-37 -31 -48 -42 -19 -47 -40 -7 -33 23 4 31 2 31 -9 0 -8 -5 -18 -11 -21 -6
-4 -9 -21 -7 -38 1 -20 -2 -31 -9 -30 -8 2 -11 -9 -8 -31 4 -32 -18 -106 -31
-106 -3 0 -3 7 0 16 6 15 4 15 -16 2 -17 -12 -25 -30 -31 -73 -6 -39 -15 -63
-29 -74 -12 -10 -19 -25 -16 -36 3 -17 6 -16 21 10 20 38 22 24 2 -15 -23 -45
-43 -35 -36 18 1 6 -5 12 -13 12 -10 0 -17 14 -21 38 -3 20 -9 48 -12 62 -4
14 -5 29 -4 33 1 5 -3 6 -7 3 -15 -9 -24 -69 -12 -76 15 -10 21 -50 7 -50 -7
0 -17 -11 -24 -25 -9 -21 -8 -29 7 -47 l17 -22 21 39 c12 22 21 36 22 32 0 -4
-7 -21 -16 -38 -8 -16 -12 -39 -9 -50 4 -11 -2 -30 -14 -48 -12 -16 -21 -34
-21 -40 0 -5 -11 -26 -24 -46 -14 -20 -28 -56 -32 -81 -6 -42 -32 -73 -48 -57
-3 3 -6 0 -7 -8 -1 -8 -5 -3 -9 11 -7 21 -8 18 -7 -15 1 -27 -2 -39 -10 -38
-10 2 -13 -18 -13 -75 0 -42 -5 -84 -10 -92 -8 -12 -10 -10 -10 10 0 20 -2 22
-10 10 -17 -26 -12 23 5 56 18 35 19 87 3 114 -9 14 -10 23 -2 28 5 4 10 22 9
40 -1 28 5 36 26 34 4 -1 9 18 12 41 3 23 10 43 15 45 6 2 8 12 5 22 -3 11 -2
31 1 45 5 20 11 25 26 20 17 -5 20 -2 20 24 0 47 23 112 37 106 8 -2 13 4 13
15 0 22 -15 27 -24 8 -3 -7 -3 -2 0 12 3 14 6 42 7 62 2 28 5 34 15 26 9 -8
12 -5 12 11 0 12 5 32 11 43 14 26 19 98 7 98 -16 0 -8 42 16 83 13 23 27 57
31 75 4 17 12 32 18 32 6 0 2 7 -9 16 -10 8 -14 13 -7 10 6 -4 14 3 18 14 3
11 15 20 25 20 10 0 22 5 25 10 4 6 15 8 25 5 10 -3 21 -1 25 5 3 5 16 10 28
9 18 0 16 -3 -11 -15z m-314 -1000 c6 4 8 -2 5 -14 -7 -27 -27 -20 -31 11 -2
17 0 20 6 10 6 -7 14 -11 20 -7z m-103 -684 c-3 -5 -11 -10 -16 -10 -6 0 -7 5
-4 10 3 6 11 10 16 10 6 0 7 -4 4 -10z m18 -99 c-5 -30 -19 -48 -42 -56 -9 -3
-22 -19 -28 -36 -13 -34 -33 -31 -33 4 -1 21 -1 22 -15 3 -22 -29 -29 -13 -10
23 8 17 30 37 48 44 17 8 38 21 44 29 21 24 42 18 36 -11z m-133 -121 c-20
-13 -43 -13 -35 0 3 6 16 10 28 10 18 0 19 -2 7 -10z m10640 -122 c0 -19 -2
-20 -10 -8 -13 19 -13 30 0 30 6 0 10 -10 10 -22z m-10500 -118 c0 -5 -4 -10
-10 -10 -5 0 -10 5 -10 10 0 6 5 10 10 10 6 0 10 -4 10 -10z m-20 -41 c0 -11
-4 -17 -10 -14 -5 3 -10 13 -10 21 0 8 5 14 10 14 6 0 10 -9 10 -21z m-100
-69 c0 -5 -2 -10 -4 -10 -2 0 -12 -3 -22 -7 -16 -6 -17 -5 -4 10 17 19 30 22
30 7z m10340 -89 c13 -25 13 -34 0 -26 -15 9 -13 4 20 -70 17 -37 30 -72 30
-78 -1 -14 -55 100 -75 156 -10 31 -10 37 1 37 7 0 18 -9 24 -19z m-10710
-220 c0 -5 -6 -12 -12 -15 -7 -3 5 -3 26 0 36 5 39 4 26 -11 -9 -11 -22 -14
-39 -10 -20 4 -22 3 -11 -5 12 -8 11 -10 -8 -10 -13 0 -30 -7 -38 -15 -17 -17
-44 -20 -44 -5 0 6 5 10 10 10 6 0 10 5 10 10 0 14 30 46 50 53 23 8 30 8 30
-2z m120 -46 c11 -13 10 -18 -8 -30 -11 -8 -30 -31 -42 -51 -13 -21 -28 -33
-36 -30 -7 3 -27 0 -44 -6 -17 -5 -34 -8 -37 -5 -3 3 20 13 51 22 41 12 56 21
56 34 0 18 -2 18 -47 2 -36 -12 -47 -13 -50 -3 -6 17 -23 15 -39 -5 -12 -16
-15 -16 -23 -3 -8 12 -5 16 14 21 13 4 34 14 47 23 12 9 33 16 45 16 13 0 23
5 23 11 0 6 9 9 19 6 10 -2 25 -1 32 4 19 12 25 11 39 -6z m340 -26 c0 -4 -15
-11 -32 -15 -36 -7 -123 -60 -150 -90 -9 -11 -26 -29 -38 -42 -11 -12 -25 -20
-30 -17 -17 11 -32 -5 -20 -20 7 -8 9 -18 6 -23 -5 -9 -86 -35 -111 -36 -15
-1 -25 -20 -14 -27 5 -3 -11 -6 -36 -7 -25 -1 -68 -11 -97 -22 -28 -10 -55
-17 -60 -14 -4 3 -14 2 -20 -3 -7 -4 -17 -8 -23 -9 -22 -3 -55 -17 -55 -23 0
-8 -57 -37 -85 -44 -11 -3 -29 -8 -40 -12 -11 -4 -5 2 13 14 18 12 40 21 50
21 21 1 52 23 52 39 0 6 9 11 21 11 22 0 125 46 134 60 3 4 23 11 45 15 22 4
40 11 40 16 0 5 11 7 25 3 14 -3 31 -2 38 4 6 6 23 12 37 14 27 3 42 38 16 38
-9 0 -16 -4 -16 -10 0 -5 -13 -10 -30 -10 -22 0 -28 4 -24 15 4 8 1 15 -7 15
-26 0 1 12 38 17 21 2 45 7 53 10 8 4 20 7 25 8 11 1 11 9 0 38 -5 11 -2 17 8
17 8 0 17 5 19 11 2 5 10 11 18 12 8 2 21 6 28 11 15 9 111 36 127 35 6 0 -1
-5 -14 -10 -17 -7 -21 -13 -14 -20 14 -14 57 7 50 24 -3 8 9 12 34 12 22 1 39
-2 39 -6z m-584 -43 c0 -14 -3 -23 -7 -20 -4 2 -12 -3 -18 -10 -7 -8 -35 -22
-62 -32 -59 -22 -82 -43 -68 -64 8 -13 12 -12 25 5 11 15 17 17 23 7 4 -7 15
-10 24 -6 9 3 15 9 13 13 -3 4 6 8 20 9 13 1 40 11 61 22 21 11 42 20 48 20 5
-1 -2 -8 -17 -16 -16 -8 -28 -18 -28 -22 0 -8 -43 -27 -81 -36 -15 -3 -29 -15
-32 -26 -3 -11 -13 -20 -24 -19 -12 0 -14 2 -4 6 9 4 10 7 2 13 -11 6 -75 -7
-114 -25 -10 -4 -21 -5 -24 -1 -4 3 1 6 10 6 10 0 17 7 17 15 0 22 40 40 52
24 8 -11 9 -10 4 3 -3 10 1 24 9 32 8 8 15 21 15 28 0 8 13 27 29 42 23 22 29
25 34 12 9 -23 41 -20 63 5 19 22 19 22 -6 14 -24 -7 -24 -7 -5 9 29 22 41 20
41 -8z m228 -32 c9 -23 -9 -41 -44 -46 -25 -4 -28 -2 -19 14 5 10 19 18 30 18
15 0 19 5 15 15 -3 8 -1 15 3 15 5 0 12 -7 15 -16z m10873 -171 c1 -10 14 -58
29 -108 28 -91 39 -163 32 -206 -3 -18 -9 -7 -26 43 -12 37 -21 77 -20 90 2
34 -22 128 -34 128 -6 0 -7 8 -3 18 4 9 7 25 7 35 0 9 3 17 6 17 4 0 8 -8 9
-17z m-10812 -3 c3 -5 -3 -10 -15 -10 -12 0 -18 5 -15 10 3 6 10 10 15 10 5 0
12 -4 15 -10z m10882 -402 c-3 -7 -5 -2 -5 12 0 14 2 19 5 13 2 -7 2 -19 0
-25z m-227 -53 c0 -41 -4 -75 -9 -75 -11 0 -26 124 -16 139 16 27 25 5 25 -64z
m250 14 c0 -6 -4 -7 -10 -4 -5 3 -10 11 -10 16 0 6 5 7 10 4 6 -3 10 -11 10
-16z m-253 -121 c-3 -8 -6 -5 -6 6 -1 11 2 17 5 13 3 -3 4 -12 1 -19z m10
-110 c-3 -8 -6 -5 -6 6 -1 11 2 17 5 13 3 -3 4 -12 1 -19z m-23 -19 c2 -13 5
-39 5 -58 1 -27 4 -32 19 -26 14 5 15 4 5 -6 -7 -7 -13 -21 -13 -30 0 -32 -20
-31 -26 1 -5 21 -11 29 -20 26 -10 -4 -14 3 -14 19 0 15 5 24 13 23 7 -2 12 8
13 22 3 69 9 79 18 29z m-31 -161 c1 -19 -2 -39 -7 -46 -4 -7 -2 -12 3 -12 6
0 11 -12 11 -27 -1 -26 -2 -27 -14 -10 -11 14 -15 15 -20 5 -3 -7 -3 -2 -1 12
2 14 7 47 10 73 7 54 17 56 18 5z m-329 -454 c11 -29 7 -46 -10 -40 -16 6 -16
6 3 -41 10 -24 -16 -13 -37 15 -22 30 -25 46 -10 48 6 1 15 2 20 3 6 0 10 8
10 16 0 20 16 19 24 -1z m536 -183 c0 -17 -12 -41 -21 -41 -5 0 -9 11 -9 25 0
16 6 25 15 25 8 0 15 -4 15 -9z m-720 -181 c0 -5 -5 -10 -11 -10 -5 0 -7 5 -4
10 3 6 8 10 11 10 2 0 4 -4 4 -10z m-271 -263 c-1 -87 7 -136 26 -167 2 -4 -2
-16 -10 -26 -9 -10 -14 -14 -14 -9 1 6 -2 21 -8 35 -6 14 -10 90 -11 170 0 96
3 137 9 122 5 -13 8 -69 8 -125z m133 -318 c-1 -68 -3 -132 -3 -142 0 -9 -5
-15 -10 -11 -6 3 -8 12 -5 20 3 8 -3 23 -14 34 -11 11 -20 28 -20 37 0 9 -7
24 -15 34 -17 18 -11 74 6 63 5 -3 9 1 9 9 0 8 7 17 15 21 8 3 12 12 9 21 -8
21 3 48 19 42 9 -3 11 -36 9 -128z m729 -201 c4 -89 1 -112 -14 -122 -9 -6
-18 -8 -20 -6 -2 3 -2 38 1 78 3 52 8 72 18 72 8 0 14 -10 15 -22z m59 -492
c0 -17 -14 -29 -23 -20 -8 8 3 34 14 34 5 0 9 -6 9 -14z m-1751 -890 c9 -11 7
-13 -11 -11 -30 3 -30 3 -23 15 9 14 20 13 34 -4z m-234 -555 c3 -5 2 -12 -3
-15 -5 -3 -9 1 -9 9 0 17 3 19 12 6z m63 -248 c36 -35 64 -103 43 -103 -5 0
-7 -8 -4 -18 3 -12 -1 -19 -11 -19 -9 0 -16 6 -16 13 0 6 -7 15 -16 18 -23 9
-36 7 -29 -4 3 -5 2 -10 -3 -10 -16 0 -19 21 -16 90 1 36 3 66 3 68 2 7 15 -2
49 -35z m31 -215 c-13 -23 -15 -29 -18 -49 0 -5 -5 -7 -11 -4 -5 3 -10 0 -10
-7 0 -10 -3 -9 -9 1 -6 10 -5 19 2 25 35 31 48 54 35 62 -7 4 -10 4 -6 0 4 -5
-9 -23 -28 -42 -32 -33 -44 -52 -26 -40 5 3 9 -1 9 -8 0 -8 -7 -12 -14 -9 -8
3 -13 0 -11 -8 2 -8 -4 -14 -12 -14 -17 0 -21 24 -7 43 6 8 5 12 -2 12 -7 0
-10 4 -6 10 3 5 13 7 23 4 10 -4 13 -3 6 3 -30 23 -25 78 6 68 10 -3 24 1 32
8 11 13 16 11 36 -9 21 -20 22 -25 11 -46z"/>
<path d="M4689 13896 c-44 -30 -69 -68 -64 -95 2 -12 0 -19 -6 -16 -5 4 -14
-6 -20 -22 -5 -15 -16 -40 -23 -54 -12 -24 -12 -26 7 -21 16 4 18 1 13 -16 -4
-11 -2 -23 4 -27 16 -10 12 -28 -5 -21 -19 7 -47 -3 -40 -15 3 -4 11 -6 18 -3
9 3 12 -15 14 -62 1 -72 15 -94 43 -69 17 15 25 65 11 65 -5 0 -12 -16 -16
-36 -3 -20 -8 -34 -11 -31 -3 2 0 24 5 48 6 26 6 46 1 49 -5 3 -2 25 6 50 11
31 13 50 6 61 -6 9 -7 30 -2 50 4 19 8 30 9 25 1 -11 60 65 61 77 0 5 9 16 19
25 22 19 31 53 16 59 -6 1 -26 -8 -46 -21z"/>
<path d="M4621 13884 c0 -11 3 -14 6 -6 3 7 2 16 -1 19 -3 4 -6 -2 -5 -13z"/>
<path d="M4590 13836 c-12 -33 -13 -46 -1 -46 9 0 24 60 16 68 -2 3 -9 -7 -15
-22z"/>
<path d="M4706 13764 c-42 -41 -54 -74 -28 -74 12 0 57 53 54 64 -2 5 5 17 14
27 10 11 15 21 12 24 -3 3 -26 -15 -52 -41z"/>
<path d="M4557 13784 c-11 -11 -8 -36 3 -29 6 3 10 0 10 -7 0 -9 3 -9 10 2 12
19 13 33 1 26 -5 -4 -11 -1 -13 5 -2 5 -7 7 -11 3z"/>
<path d="M4646 13654 c-11 -27 -7 -37 9 -24 16 14 20 40 6 40 -5 0 -12 -7 -15
-16z"/>
<path d="M4486 13395 c-3 -8 -1 -15 4 -15 6 0 10 7 10 15 0 8 -2 15 -4 15 -2
0 -6 -7 -10 -15z"/>
<path d="M4525 13341 c5 -10 -32 -51 -46 -51 -14 0 -16 -38 -4 -61 l13 -24 12
30 c7 17 20 49 31 73 16 36 17 42 3 42 -8 0 -13 -4 -9 -9z"/>
<path d="M4430 13198 c0 -19 2 -20 10 -8 13 19 13 30 0 30 -5 0 -10 -10 -10
-22z"/>
<path d="M4438 13140 c-3 -17 -1 -33 4 -36 4 -3 9 1 9 8 1 7 3 23 4 36 3 34
-12 26 -17 -8z"/>
<path d="M4355 12920 c-3 -5 -1 -10 4 -10 6 0 11 5 11 10 0 6 -2 10 -4 10 -3
0 -8 -4 -11 -10z"/>
<path d="M3865 11350 c4 -6 11 -8 16 -5 14 9 11 15 -7 15 -8 0 -12 -5 -9 -10z"/>
<path d="M4107 11324 c-3 -3 -3 -12 -1 -19 3 -8 -2 -12 -13 -12 -13 2 -18 -5
-18 -22 0 -13 6 -26 13 -28 6 -3 12 2 12 10 0 8 9 17 19 20 13 3 19 13 18 31
-2 24 -16 34 -30 20z"/>
<path d="M4035 11230 c-3 -5 -1 -10 4 -10 6 0 11 5 11 10 0 6 -2 10 -4 10 -3
0 -8 -4 -11 -10z"/>
<path d="M3818 11093 c7 -3 16 -2 19 1 4 3 -2 6 -13 5 -11 0 -14 -3 -6 -6z"/>
<path d="M14652 10690 c0 -14 2 -19 5 -12 2 6 2 18 0 25 -3 6 -5 1 -5 -13z"/>
<path d="M13900 8860 c0 -5 5 -10 11 -10 5 0 7 5 4 10 -3 6 -8 10 -11 10 -2 0
-4 -4 -4 -10z"/>
<path d="M11146 18079 c15 -25 87 -60 117 -57 l32 3 -50 24 c-64 30 -107 43
-99 30z"/>
<path d="M8920 18050 c0 -5 7 -10 16 -10 8 0 12 5 9 10 -3 6 -10 10 -16 10 -5
0 -9 -4 -9 -10z"/>
<path d="M9262 18039 c2 -6 7 -10 11 -9 5 0 17 -9 27 -22 11 -13 19 -18 20
-11 0 6 -6 14 -12 16 -7 3 -4 6 7 6 17 1 15 4 -9 16 -33 18 -49 19 -44 4z"/>
<path d="M10691 18018 c10 -37 -9 -72 -31 -57 -8 5 -27 9 -42 9 -39 0 -58 10
-51 26 4 12 -6 13 -58 8 -66 -6 -92 -14 -47 -14 14 0 60 -10 104 -21 43 -12
91 -24 107 -26 15 -3 30 -9 33 -14 10 -17 63 -9 83 12 l19 21 -1 -36 c-1 -20
-5 -36 -9 -36 -4 0 -8 -6 -8 -14 0 -8 -5 -18 -12 -22 -8 -5 -9 -1 -5 12 7 18
6 18 -7 2 -7 -10 -18 -18 -25 -18 -6 0 -11 -4 -11 -9 0 -5 -9 -13 -20 -16 -23
-7 -27 -35 -5 -35 8 0 23 9 32 20 23 27 31 25 35 -7 4 -33 27 -33 69 -3 16 11
35 16 48 13 25 -6 29 12 5 21 -9 4 -15 9 -12 12 4 4 51 -12 67 -23 9 -6 -29
-33 -46 -33 -11 0 -27 -6 -37 -13 -23 -17 -11 -48 18 -46 11 1 34 1 50 1 24
-2 27 -4 16 -17 -19 -22 5 -45 47 -45 19 0 44 -5 56 -12 45 -24 135 -2 107 26
-6 6 -10 16 -10 24 0 12 3 12 15 2 12 -10 16 -9 22 6 10 29 26 35 45 17 10 -9
18 -11 18 -6 0 16 -50 45 -67 39 -8 -3 -24 1 -36 9 -12 8 -32 15 -44 15 -12 0
-27 9 -33 19 -8 16 -15 18 -40 11 -24 -7 -43 -3 -85 16 -31 13 -63 24 -71 24
-10 0 -14 6 -10 15 4 11 -1 15 -19 15 -18 0 -25 5 -25 20 0 11 4 20 9 20 14 0
-12 63 -36 89 -12 13 -26 20 -32 17 -6 -4 -26 -3 -45 2 l-34 10 9 -30z m469
-263 c21 -25 1 -31 -22 -7 -18 18 -19 22 -6 22 8 0 21 -7 28 -15z"/>
<path d="M8335 18030 c4 -6 11 -8 16 -5 14 9 11 15 -7 15 -8 0 -12 -5 -9 -10z"/>
<path d="M11155 18030 c-3 -5 -1 -10 4 -10 6 0 11 5 11 10 0 6 -2 10 -4 10 -3
0 -8 -4 -11 -10z"/>
<path d="M9368 17998 c5 -5 16 -8 23 -6 8 3 3 7 -10 11 -17 4 -21 3 -13 -5z"/>
<path d="M9827 18003 c-4 -3 -7 -13 -7 -22 1 -13 3 -13 11 2 11 19 8 33 -4 20z"/>
<path d="M10255 17976 c-16 -5 -54 -20 -83 -33 -43 -20 -51 -28 -41 -39 9 -11
5 -17 -20 -31 -34 -20 -38 -50 -6 -45 11 2 34 6 50 9 24 4 28 3 18 -7 -7 -7
-24 -15 -39 -16 -36 -4 -52 -20 -36 -36 9 -9 20 -8 47 5 19 9 42 14 50 11 8
-4 26 1 38 9 14 9 35 13 52 10 22 -5 26 -3 20 8 -6 11 -5 12 6 2 17 -17 29
-16 29 0 0 20 -40 54 -48 41 -9 -14 -51 -24 -57 -15 -2 4 14 15 36 25 29 13
43 15 53 7 7 -6 32 -9 54 -7 23 2 42 1 42 -3 0 -13 -24 -31 -42 -31 -10 0 -18
-4 -18 -9 0 -17 20 -23 35 -11 8 7 26 10 40 8 19 -4 25 -1 25 13 0 22 11 23
65 4 67 -24 139 -1 159 50 4 11 4 16 0 12 -4 -4 -18 2 -30 14 -15 14 -40 22
-84 26 -59 6 -62 5 -96 -28 -18 -18 -34 -29 -34 -25 0 5 8 16 18 25 9 9 18 24
20 35 3 16 -2 18 -32 14 -27 -3 -33 -1 -25 8 8 10 -6 12 -63 11 -40 -1 -86 -6
-103 -11z"/>
<path d="M10955 17978 c-16 -4 -42 -5 -57 -2 -21 4 -28 2 -28 -9 0 -21 89 -29
111 -10 20 17 39 17 39 -1 0 -8 14 -20 30 -28 17 -7 30 -16 30 -20 0 -5 8 -8
18 -8 14 0 19 8 20 32 0 18 6 34 11 36 6 2 11 8 11 13 0 15 -22 10 -36 -8 -13
-17 -15 -17 -27 -2 -13 18 -72 21 -122 7z m140 -38 c-3 -5 -13 -10 -21 -10 -8
0 -14 5 -14 10 0 6 9 10 21 10 11 0 17 -4 14 -10z"/>
<path d="M10490 17970 c0 -5 5 -10 10 -10 6 0 10 5 10 10 0 6 -4 10 -10 10 -5
0 -10 -4 -10 -10z"/>
<path d="M10006 17933 c-6 -14 -5 -15 5 -6 7 7 10 15 7 18 -3 3 -9 -2 -12 -12z"/>
<path d="M11207 17943 c-4 -3 0 -15 10 -25 9 -10 13 -18 8 -18 -4 0 -1 -7 6
-16 8 -9 14 -22 15 -28 4 -41 4 -42 14 -25 5 9 5 32 -2 60 -13 51 -33 71 -51
52z"/>
<path d="M10961 17926 c-16 -9 -20 -16 -12 -20 18 -11 71 4 71 20 0 17 -27 18
-59 0z"/>
<path d="M11160 17901 c0 -5 5 -13 10 -16 6 -3 10 -2 10 4 0 5 -4 13 -10 16
-5 3 -10 2 -10 -4z"/>
<path d="M10700 17890 c0 -5 7 -10 15 -10 8 0 15 5 15 10 0 6 -7 10 -15 10 -8
0 -15 -4 -15 -10z"/>
<path d="M10500 17818 c0 -11 12 -10 30 2 12 7 10 9 -8 7 -12 0 -22 -5 -22 -9z"/>
<path d="M10593 17818 c-27 -13 -42 -44 -16 -33 40 17 64 16 90 0 l27 -18 -24
29 c-27 33 -43 37 -77 22z"/>
<path d="M10036 17801 c-4 -7 -5 -15 -2 -18 9 -9 19 4 14 18 -4 11 -6 11 -12
0z"/>
<path d="M10285 17780 c-4 -6 5 -10 20 -10 15 0 24 4 20 10 -3 6 -12 10 -20
10 -8 0 -17 -4 -20 -10z"/>
<path d="M10721 17781 c-10 -7 -8 -10 8 -16 27 -8 36 -2 18 13 -7 6 -18 7 -26
3z"/>
<path d="M10627 17769 c-10 -6 -27 -9 -38 -6 -10 3 -19 1 -19 -4 0 -5 23 -9
50 -8 30 1 49 6 47 12 -5 16 -20 18 -40 6z"/>
<path d="M11528 17728 c9 -9 15 -9 24 0 9 9 7 12 -12 12 -19 0 -21 -3 -12 -12z"/>
<path d="M11585 17730 c3 -5 8 -10 11 -10 2 0 4 5 4 10 0 6 -5 10 -11 10 -5 0
-7 -4 -4 -10z"/>
<path d="M11780 17725 c9 -8 24 -12 38 -9 35 10 26 24 -15 24 -33 0 -36 -2
-23 -15z"/>
<path d="M7690 17700 c0 -5 6 -10 14 -10 8 0 18 5 21 10 3 6 -3 10 -14 10 -12
0 -21 -4 -21 -10z"/>
<path d="M7540 17640 c0 -5 5 -10 10 -10 6 0 10 5 10 10 0 6 -4 10 -10 10 -5
0 -10 -4 -10 -10z"/>
<path d="M7510 17604 c0 -8 5 -12 10 -9 6 4 8 11 5 16 -9 14 -15 11 -15 -7z"/>
<path d="M11923 17583 c0 -10 6 -25 14 -34 7 -9 11 -24 7 -34 -5 -13 -3 -16 7
-13 23 7 21 41 -4 71 -19 23 -24 25 -24 10z"/>
<path d="M12030 17350 c0 -13 7 -20 19 -20 19 0 121 -94 121 -111 0 -5 6 -9
14 -9 8 0 16 -6 18 -12 5 -13 58 -19 58 -7 0 6 -31 35 -116 109 -27 23 -101
70 -110 70 -2 0 -4 -9 -4 -20z"/>
<path d="M7011 17235 c-1 -14 37 -61 43 -54 3 2 -6 18 -19 34 -13 17 -24 26
-24 20z"/>
<path d="M12510 16868 c0 -8 9 -23 20 -33 16 -15 20 -15 20 -3 0 8 -9 23 -20
33 -16 15 -20 15 -20 3z"/>
<path d="M12700 16683 c0 -14 74 -73 82 -65 5 5 -9 23 -31 40 -40 32 -51 38
-51 25z"/>
<path d="M12805 16600 c3 -5 8 -10 11 -10 2 0 4 5 4 10 0 6 -5 10 -11 10 -5 0
-7 -4 -4 -10z"/>
<path d="M13030 16385 c0 -8 4 -15 10 -15 5 0 7 7 4 15 -4 8 -8 15 -10 15 -2
0 -4 -7 -4 -15z"/>
<path d="M12994 16314 c3 -9 6 -18 6 -20 0 -2 4 -4 8 -4 4 0 8 9 9 20 1 12 -4
20 -14 20 -10 0 -13 -6 -9 -16z"/>
<path d="M5942 16060 c-13 -21 -16 -50 -6 -50 12 0 33 34 34 53 0 23 -12 22
-28 -3z"/>
<path d="M5800 15855 c0 -8 5 -15 10 -15 6 0 10 7 10 15 0 8 -4 15 -10 15 -5
0 -10 -7 -10 -15z"/>
<path d="M13392 15675 c6 -14 15 -25 20 -25 11 0 10 7 -2 31 -16 28 -32 23
-18 -6z"/>
<path d="M13431 15434 c0 -11 3 -14 6 -6 3 7 2 16 -1 19 -3 4 -6 -2 -5 -13z"/>
<path d="M13428 15379 c-3 -17 0 -26 9 -26 15 0 15 3 4 32 -7 18 -8 17 -13 -6z"/>
<path d="M13620 15213 c0 -12 -2 -27 -5 -35 -2 -7 7 -21 20 -31 24 -17 26 -17
51 0 l27 17 -32 8 c-17 5 -31 12 -31 16 0 5 -7 17 -15 28 -14 19 -14 19 -15
-3z"/>
<path d="M13640 14956 c0 -2 7 -6 15 -10 8 -3 15 -1 15 4 0 6 -7 10 -15 10 -8
0 -15 -2 -15 -4z"/>
<path d="M13760 14882 c0 -5 12 -14 26 -21 23 -10 26 -10 20 4 -3 9 -6 19 -6
21 0 2 -9 4 -20 4 -11 0 -20 -4 -20 -8z"/>
<path d="M13870 14604 c0 -8 5 -12 10 -9 6 3 10 10 10 16 0 5 -4 9 -10 9 -5 0
-10 -7 -10 -16z"/>
<path d="M14017 14544 c-4 -4 -7 -17 -7 -28 1 -19 1 -20 11 -3 11 19 8 43 -4
31z"/>
<path d="M4910 14505 c-6 -16 -16 -25 -26 -23 -28 5 -27 -19 1 -26 17 -4 31
-1 40 8 18 17 20 36 4 36 -6 0 -9 7 -5 15 3 8 3 15 0 15 -2 0 -9 -11 -14 -25z"/>
<path d="M14060 14519 c0 -5 5 -7 10 -4 6 3 10 8 10 11 0 2 -4 4 -10 4 -5 0
-10 -5 -10 -11z"/>
<path d="M14215 14330 c-3 -5 1 -10 9 -10 9 0 16 5 16 10 0 6 -4 10 -9 10 -6
0 -13 -4 -16 -10z"/>
<path d="M4700 14161 c0 -20 6 -30 20 -34 15 -4 20 0 20 14 0 10 -4 19 -10 19
-5 0 -10 7 -10 15 0 8 -4 15 -10 15 -5 0 -10 -13 -10 -29z"/>
<path d="M14276 14133 c-11 -11 -6 -23 9 -23 8 0 15 4 15 9 0 13 -16 22 -24
14z"/>
<path d="M4473 13905 c-9 -26 4 -28 26 -6 21 21 21 21 1 21 -11 0 -23 -7 -27
-15z"/>
<path d="M14401 13514 c0 -11 3 -14 6 -6 3 7 2 16 -1 19 -3 4 -6 -2 -5 -13z"/>
<path d="M14630 13510 c0 -5 10 -10 23 -10 18 0 19 2 7 10 -19 13 -30 13 -30
0z"/>
<path d="M14471 13404 c0 -11 3 -14 6 -6 3 7 2 16 -1 19 -3 4 -6 -2 -5 -13z"/>
<path d="M14496 13365 c-3 -8 -1 -15 4 -15 13 0 22 18 11 24 -5 3 -11 -1 -15
-9z"/>
<path d="M14536 13345 c4 -8 8 -15 10 -15 2 0 4 7 4 15 0 8 -4 15 -10 15 -5 0
-7 -7 -4 -15z"/>
<path d="M14570 13228 c0 -6 3 -8 7 -5 3 4 15 0 25 -10 22 -20 24 -11 2 11
-18 19 -34 21 -34 4z"/>
<path d="M14631 13230 c-1 -25 13 -40 29 -30 13 8 12 10 -2 10 -9 0 -19 8 -21
18 -3 12 -5 13 -6 2z"/>
<path d="M14580 13171 c0 -10 19 -25 25 -20 1 2 -3 10 -11 17 -8 7 -14 8 -14
3z"/>
<path d="M14630 13156 c0 -2 8 -10 18 -17 15 -13 16 -12 3 4 -13 16 -21 21
-21 13z"/>
<path d="M14615 13130 c3 -5 8 -10 11 -10 2 0 4 5 4 10 0 6 -5 10 -11 10 -5 0
-7 -4 -4 -10z"/>
<path d="M14641 13098 c9 -7 15 -24 13 -38 -2 -24 -2 -24 9 3 8 21 16 26 31
21 21 -6 21 -6 1 9 -11 9 -21 11 -23 6 -2 -5 -13 -5 -25 2 -19 9 -20 8 -6 -3z"/>
<path d="M14720 13050 c11 -21 48 -45 57 -36 7 6 -43 56 -57 56 -8 0 -8 -6 0
-20z"/>
<path d="M14785 13001 c-3 -5 -1 -12 5 -16 5 -3 10 1 10 9 0 18 -6 21 -15 7z"/>
<path d="M14666 12975 c4 -8 11 -15 16 -15 6 0 5 6 -2 15 -7 8 -14 15 -16 15
-2 0 -1 -7 2 -15z"/>
<path d="M14705 12958 c0 -28 13 -50 25 -43 10 6 -8 65 -19 65 -4 0 -7 -10 -6
-22z"/>
<path d="M4250 12890 c0 -17 7 -47 15 -67 8 -19 15 -47 15 -62 0 -30 21 -81
33 -81 4 0 7 11 7 25 0 14 5 25 10 25 6 0 10 9 10 21 0 11 5 17 10 14 13 -8
13 35 1 54 -8 12 -12 10 -22 -12 -22 -48 -41 -27 -53 55 -8 55 -26 74 -26 28z"/>
<path d="M14716 12891 c-4 -5 -2 -12 3 -15 5 -4 12 -2 15 3 4 5 2 12 -3 15 -5
4 -12 2 -15 -3z"/>
<path d="M14938 12805 c-8 -8 20 -93 34 -101 20 -13 19 7 -4 56 -12 29 -26 49
-30 45z"/>
<path d="M14763 12770 c14 -11 28 -20 32 -20 4 0 -4 9 -18 20 -14 11 -28 20
-32 20 -4 0 4 -9 18 -20z"/>
<path d="M4155 12740 c-3 -5 -1 -19 5 -30 11 -20 65 -78 59 -63 -46 108 -50
115 -64 93z"/>
<path d="M14791 12729 c-1 -21 21 -30 40 -18 11 7 9 9 -8 9 -12 0 -24 6 -26
13 -4 7 -6 6 -6 -4z"/>
<path d="M4336 12695 c4 -8 8 -15 10 -15 2 0 4 7 4 15 0 8 -4 15 -10 15 -5 0
-7 -7 -4 -15z"/>
<path d="M14760 12661 c0 -5 9 -7 20 -4 11 3 20 7 20 9 0 2 -9 4 -20 4 -11 0
-20 -4 -20 -9z"/>
<path d="M14790 12625 c0 -14 2 -25 4 -25 2 0 6 11 8 25 3 14 1 25 -3 25 -5 0
-9 -11 -9 -25z"/>
<path d="M14940 12629 c7 -11 14 -18 17 -15 8 8 -5 36 -17 36 -7 0 -7 -6 0
-21z"/>
<path d="M4230 12617 c0 -8 9 -22 20 -32 11 -10 17 -23 13 -29 -4 -8 -2 -8 6
0 10 9 9 18 -3 43 -17 32 -36 41 -36 18z"/>
<path d="M4177 12614 c-4 -4 -7 -17 -7 -28 1 -19 1 -20 11 -3 11 19 8 43 -4
31z"/>
<path d="M15000 12590 c0 -11 4 -20 9 -20 5 0 7 9 4 20 -3 11 -7 20 -9 20 -2
0 -4 -9 -4 -20z"/>
<path d="M14861 12514 c0 -11 3 -14 6 -6 3 7 2 16 -1 19 -3 4 -6 -2 -5 -13z"/>
<path d="M4150 12510 c0 -5 5 -10 10 -10 6 0 10 5 10 10 0 6 -4 10 -10 10 -5
0 -10 -4 -10 -10z"/>
<path d="M14895 12480 c3 -5 8 -10 11 -10 2 0 4 5 4 10 0 6 -5 10 -11 10 -5 0
-7 -4 -4 -10z"/>
<path d="M14870 12435 c0 -5 5 -17 10 -25 5 -8 10 -10 10 -5 0 6 -5 17 -10 25
-5 8 -10 11 -10 5z"/>
<path d="M14886 12334 c-4 -10 -14 -14 -26 -11 -13 3 -20 0 -20 -10 0 -8 5
-11 10 -8 9 6 14 -16 13 -53 -1 -10 2 -10 14 -1 9 8 12 21 8 37 -3 14 -2 21 4
18 5 -4 13 -1 17 5 5 8 3 9 -6 4 -9 -5 -10 -2 -5 14 7 24 0 29 -9 5z"/>
<path d="M14934 12259 c-3 -6 -2 -14 3 -18 6 -3 13 -13 16 -21 4 -12 6 -12 6
2 1 9 -4 20 -9 23 -6 4 -8 11 -5 16 4 5 4 9 1 9 -3 0 -8 -5 -12 -11z"/>
<path d="M14944 12179 c-3 -6 -2 -15 3 -20 5 -5 9 -1 9 11 0 23 -2 24 -12 9z"/>
<path d="M15051 12148 c0 -7 4 -22 9 -33 7 -17 9 -15 9 13 1 17 -3 32 -9 32
-5 0 -10 -6 -9 -12z"/>
<path d="M14874 12118 c4 -20 26 -21 26 -1 0 14 -2 15 -9 4 -6 -9 -10 -10 -14
-2 -4 8 -5 8 -3 -1z"/>
<path d="M14893 12048 c7 -27 13 -36 15 -25 5 24 -6 67 -17 67 -5 0 -4 -19 2
-42z"/>
<path d="M14947 12060 c7 -39 13 -52 13 -26 0 9 4 15 9 12 4 -3 6 6 3 20 -3
17 -7 22 -12 14 -6 -9 -9 -9 -13 1 -3 8 -3 -2 0 -21z"/>
<path d="M14711 12054 c0 -11 3 -14 6 -6 3 7 2 16 -1 19 -3 4 -6 -2 -5 -13z"/>
<path d="M15060 12029 c0 -17 4 -28 10 -24 6 3 10 17 10 31 0 13 -4 24 -10 24
-5 0 -10 -14 -10 -31z"/>
<path d="M14736 12003 c9 -74 24 -124 34 -118 6 4 10 1 10 -6 0 -7 3 -10 6 -6
3 3 1 13 -4 23 -7 13 -6 24 5 41 9 13 11 23 5 23 -6 0 -15 19 -19 42 -6 28
-15 44 -26 46 -15 3 -16 -3 -11 -45z"/>
<path d="M14700 12006 c0 -14 21 -58 26 -54 8 8 -7 58 -17 58 -5 0 -9 -2 -9
-4z"/>
<path d="M4006 11953 c-8 -8 -13 -9 -41 -12 -8 0 -12 -7 -9 -16 5 -13 9 -13
35 1 16 8 29 19 29 24 0 12 -4 13 -14 3z"/>
<path d="M4237 11953 c-10 -10 -8 -25 2 -19 15 10 33 -22 26 -44 -6 -18 -3
-21 12 -18 21 4 20 37 -3 54 -8 6 -14 16 -14 23 0 12 -13 15 -23 4z"/>
<path d="M14730 11865 c0 -14 4 -25 8 -25 4 0 9 11 10 25 1 14 -3 25 -8 25 -6
0 -10 -11 -10 -25z"/>
<path d="M4035 11830 c-3 -5 -1 -10 4 -10 6 0 11 5 11 10 0 6 -2 10 -4 10 -3
0 -8 -4 -11 -10z"/>
<path d="M3955 11820 c-3 -5 -1 -10 4 -10 6 0 11 5 11 10 0 6 -2 10 -4 10 -3
0 -8 -4 -11 -10z"/>
<path d="M14846 11821 c-4 -5 -9 -52 -13 -103 -5 -84 -4 -96 13 -113 19 -18
19 -18 25 16 l6 34 11 -25 c7 -17 11 -20 11 -8 1 9 -3 19 -7 22 -5 3 -7 20 -6
38 l3 33 -7 -30 c-11 -43 -18 -21 -21 65 -3 79 -5 88 -15 71z"/>
<path d="M14758 11804 c-5 -4 -8 -21 -9 -38 0 -29 -1 -29 -9 -8 -5 12 -14 22
-20 22 -6 0 -8 -5 -4 -12 12 -19 22 -88 13 -88 -5 0 -8 -12 -8 -27 1 -17 3
-21 6 -10 6 24 22 21 33 -7 16 -44 30 -40 30 8 0 25 -5 48 -10 51 -6 4 -9 14
-6 23 6 23 -7 95 -16 86z"/>
<path d="M3954 11789 c-3 -6 1 -18 10 -28 9 -10 16 -24 16 -32 1 -8 7 -3 14
10 7 13 11 31 9 40 -5 19 -39 25 -49 10z"/>
<path d="M4020 11763 c0 -5 4 -14 9 -21 6 -10 10 -9 14 7 3 14 0 21 -9 21 -8
0 -14 -3 -14 -7z"/>
<path d="M14977 11613 c-4 -3 -7 -13 -7 -22 1 -13 3 -13 11 2 11 19 8 33 -4
20z"/>
<path d="M14610 11604 c0 -6 7 -19 16 -30 14 -18 14 -18 3 6 -14 31 -19 36
-19 24z"/>
<path d="M14745 11600 c-3 -5 -1 -10 4 -10 6 0 11 5 11 10 0 6 -2 10 -4 10 -3
0 -8 -4 -11 -10z"/>
<path d="M14882 11575 c0 -11 3 -29 8 -40 11 -25 11 1 0 35 -6 20 -8 21 -8 5z"/>
<path d="M3635 11470 c-3 -5 1 -10 9 -10 8 0 18 5 21 10 3 6 -1 10 -9 10 -8 0
-18 -4 -21 -10z"/>
<path d="M14806 11465 c4 -8 8 -15 10 -15 2 0 4 7 4 15 0 8 -4 15 -10 15 -5 0
-7 -7 -4 -15z"/>
<path d="M14870 11455 c0 -8 5 -15 10 -15 6 0 10 7 10 15 0 8 -4 15 -10 15 -5
0 -10 -7 -10 -15z"/>
<path d="M3595 11446 c-11 -8 -24 -12 -31 -9 -6 2 -14 -3 -17 -11 -9 -24 14
-19 48 9 32 26 32 34 0 11z"/>
<path d="M14862 11410 c0 -14 2 -19 5 -12 2 6 2 18 0 25 -3 6 -5 1 -5 -13z"/>
<path d="M14918 11383 c-2 -20 -9 -28 -23 -28 -15 0 -21 -8 -23 -29 -3 -21 -6
-26 -12 -16 -10 17 -1 -66 11 -95 l8 -20 1 20 c1 18 2 17 15 -5 8 -14 14 -20
15 -14 0 6 -9 23 -20 37 -24 30 -25 45 -5 83 13 26 20 26 16 1 -1 -5 3 -6 9
-2 5 3 10 14 10 23 0 10 9 23 20 30 18 11 19 14 6 27 -20 21 -24 19 -28 -12z"/>
<path d="M14790 11380 c0 -5 5 -10 11 -10 5 0 7 5 4 10 -3 6 -8 10 -11 10 -2
0 -4 -4 -4 -10z"/>
<path d="M14866 11152 c4 -20 10 -38 14 -40 3 -1 5 -17 4 -35 l-3 -32 7 29 c4
17 12 29 17 28 10 -2 11 -6 14 -39 1 -13 4 -14 12 -6 17 17 3 60 -21 66 -13 3
-20 13 -20 30 0 14 -7 28 -15 31 -13 5 -15 0 -9 -32z"/>
<path d="M14901 11164 c0 -11 3 -14 6 -6 3 7 2 16 -1 19 -3 4 -6 -2 -5 -13z"/>
<path d="M14930 11026 c0 -8 4 -17 9 -20 5 -4 7 3 4 14 -6 23 -13 26 -13 6z"/>
<path d="M3780 11003 c-48 -14 -120 -47 -120 -55 0 -5 -4 -7 -9 -3 -5 3 -16
-3 -23 -13 -15 -22 -57 -46 -66 -38 -3 3 0 6 6 6 7 0 12 7 12 14 0 12 -6 13
-30 5 -22 -8 -30 -17 -30 -35 0 -25 -25 -34 -32 -12 -5 13 -14 9 -68 -25 -53
-33 -45 -70 9 -46 30 13 41 29 21 29 -5 0 -10 4 -10 8 0 4 17 9 37 9 37 1 37
1 15 -16 -26 -19 -19 -35 10 -20 10 5 23 7 28 4 5 -3 11 -1 15 5 9 15 25 12
25 -5 0 -21 12 -19 33 6 10 11 21 19 24 16 9 -9 -27 -54 -52 -65 -14 -6 -23
-17 -21 -24 3 -7 -19 -31 -47 -54 -50 -38 -61 -59 -34 -59 6 -1 27 13 45 30
39 36 62 45 83 34 13 -7 15 -4 11 18 -4 21 -2 25 11 20 14 -5 29 12 31 37 1 5
11 11 24 13 21 3 42 13 103 49 16 9 16 11 1 21 -15 9 -129 -1 -187 -17 -5 -1
-19 -2 -30 -1 -20 2 -20 2 -1 16 11 8 35 15 53 15 28 0 37 6 54 35 18 29 27
35 56 35 19 0 43 -5 54 -11 15 -8 25 -6 43 9 15 11 43 19 77 21 62 3 69 6 69
32 0 21 -16 24 -52 10 -76 -31 -88 -33 -81 -13 5 12 2 14 -12 8 -10 -3 -21 -3
-24 2 -3 5 -13 7 -21 5z"/>
<path d="M14910 10954 c0 -8 32 -33 43 -34 4 0 -2 9 -13 20 -21 21 -30 25 -30
14z"/>
<path d="M3890 10920 c-8 -5 -12 -12 -9 -15 4 -3 12 1 19 10 14 17 11 19 -10
5z"/>
<path d="M4070 10921 c0 -6 5 -13 10 -16 6 -3 10 1 10 9 0 9 -4 16 -10 16 -5
0 -10 -4 -10 -9z"/>
<path d="M4225 10920 c3 -5 8 -10 11 -10 2 0 4 5 4 10 0 6 -5 10 -11 10 -5 0
-7 -4 -4 -10z"/>
<path d="M3708 10906 c-16 -12 -25 -36 -13 -36 18 0 84 34 79 41 -8 13 -46 10
-66 -5z"/>
<path d="M3843 10895 c0 -8 4 -15 9 -15 4 0 8 7 8 15 0 8 -4 15 -8 15 -5 0 -9
-7 -9 -15z"/>
<path d="M4105 10901 c-3 -5 -1 -12 5 -16 5 -3 10 1 10 9 0 18 -6 21 -15 7z"/>
<path d="M3892 10858 c-1 -30 4 -33 28 -18 10 6 11 10 3 10 -7 0 -13 5 -13 10
0 21 18 9 30 -20 14 -33 25 -38 34 -15 3 9 -1 18 -9 21 -8 4 -15 14 -15 23 0
11 -9 16 -29 17 -24 1 -28 -3 -29 -28z"/>
<path d="M4250 10879 c0 -5 5 -7 10 -4 6 3 10 8 10 11 0 2 -4 4 -10 4 -5 0
-10 -5 -10 -11z"/>
<path d="M14921 10874 c0 -11 3 -14 6 -6 3 7 2 16 -1 19 -3 4 -6 -2 -5 -13z"/>
<path d="M4132 10820 c1 -33 16 -50 28 -31 10 18 0 61 -15 61 -9 0 -13 -11
-13 -30z"/>
<path d="M3965 10795 c-14 -20 -29 -33 -33 -31 -4 2 -7 -13 -7 -33 0 -33 2
-37 16 -28 9 6 14 18 11 29 -5 19 14 26 20 6 2 -6 10 -8 17 -4 9 6 9 12 -4 26
-15 17 -15 19 4 25 12 3 21 13 21 20 0 28 -19 24 -45 -10z"/>
<path d="M4047 10815 c-8 -8 -17 -11 -21 -8 -3 4 -6 -1 -6 -10 0 -9 7 -17 15
-17 8 0 19 -9 25 -20 11 -21 8 -23 -26 -21 -26 2 -55 -24 -48 -43 6 -16 -23
-30 -32 -15 -8 14 -34 -9 -34 -31 0 -10 -7 -20 -15 -24 -8 -3 -15 -12 -15 -21
0 -21 -17 -19 -23 3 -4 14 -5 13 -6 -3 0 -12 -5 -25 -10 -30 -12 -14 -24 -68
-12 -61 5 3 12 -1 15 -10 9 -24 7 -34 -8 -34 -8 0 -19 -12 -24 -27 -5 -16 -13
-37 -17 -48 -7 -19 -6 -18 14 2 11 12 21 31 21 43 0 14 6 19 20 17 11 -2 23
-6 26 -10 14 -13 31 -7 41 16 11 22 11 22 23 -8 11 -29 12 -30 28 -10 9 11 27
29 40 40 l23 19 -16 -30 c-20 -38 -19 -50 2 -29 15 15 19 46 11 85 -2 8 1 16
6 17 10 1 26 24 26 36 0 5 -4 5 -10 2 -5 -3 -10 -2 -10 4 0 5 6 11 13 14 8 3
5 12 -10 29 -31 33 -29 43 9 43 28 0 33 4 39 33 5 26 3 35 -12 43 -20 10 -27
49 -9 49 6 0 10 7 10 15 0 19 -24 19 -43 0z m-107 -200 c0 -8 -4 -15 -10 -15
-5 0 -7 7 -4 15 4 8 8 15 10 15 2 0 4 -7 4 -15z m-17 -45 c-3 -10 -12 -25 -19
-31 -12 -10 -13 -8 -8 7 7 19 24 44 29 44 2 0 1 -9 -2 -20z m-61 -22 c-8 -8
-9 -4 -5 13 4 13 8 18 11 10 2 -7 -1 -18 -6 -23z"/>
<path d="M3540 10786 c0 -9 5 -16 10 -16 6 0 10 4 10 9 0 6 -4 13 -10 16 -5 3
-10 -1 -10 -9z"/>
<path d="M4100 10781 c0 -13 28 -33 41 -29 6 2 0 12 -15 21 -14 10 -26 13 -26
8z"/>
<path d="M14690 10771 c0 -6 4 -13 10 -16 6 -3 7 1 4 9 -7 18 -14 21 -14 7z"/>
<path d="M14931 10764 c0 -11 3 -14 6 -6 3 7 2 16 -1 19 -3 4 -6 -2 -5 -13z"/>
<path d="M3803 10751 c-13 -21 -8 -32 13 -24 14 5 20 43 6 43 -4 0 -13 -9 -19
-19z"/>
<path d="M3882 10711 c-11 -6 -10 -10 3 -15 12 -4 15 -13 12 -28 -4 -15 -3
-18 5 -10 6 6 7 18 3 29 -5 10 -7 21 -7 26 2 9 0 9 -16 -2z"/>
<path d="M3549 10670 c-20 -16 -21 -19 -7 -20 10 0 22 9 28 20 13 25 8 25 -21
0z"/>
<path d="M14747 10674 c-4 -4 -7 -17 -7 -28 1 -19 1 -20 11 -3 11 19 8 43 -4
31z"/>
<path d="M3490 10594 c0 -8 -4 -12 -10 -9 -5 3 -7 0 -4 -9 6 -15 34 -11 34 6
0 5 6 6 13 2 8 -5 8 -2 -2 9 -17 21 -31 22 -31 1z"/>
<path d="M14980 10562 c12 -18 25 -31 28 -27 3 3 -7 18 -23 33 l-28 27 23 -33z"/>
<path d="M4090 10525 c-7 -9 -8 -15 -2 -15 5 0 12 7 16 15 3 8 4 15 2 15 -2 0
-9 -7 -16 -15z"/>
<path d="M3720 10503 c0 -21 3 -24 9 -14 5 8 7 20 4 28 -8 21 -13 15 -13 -14z"/>
<path d="M14955 10489 c6 -45 15 -49 15 -6 0 21 -4 37 -10 37 -5 0 -7 -14 -5
-31z"/>
<path d="M15017 10479 c7 -7 15 -10 18 -7 3 3 -2 9 -12 12 -14 6 -15 5 -6 -5z"/>
<path d="M3711 10463 c0 -6 -4 -20 -7 -30 -5 -14 -4 -15 5 -7 7 7 11 20 8 30
-3 11 -5 14 -6 7z"/>
<path d="M3745 10460 c3 -5 8 -10 11 -10 2 0 4 5 4 10 0 6 -5 10 -11 10 -5 0
-7 -4 -4 -10z"/>
<path d="M3800 10440 c-7 -16 -16 -30 -21 -30 -5 0 -14 -12 -19 -26 -7 -17
-15 -24 -25 -20 -8 3 -15 1 -15 -4 0 -5 -6 -7 -12 -5 -22 8 -60 -30 -60 -58 0
-19 -6 -27 -19 -27 -10 0 -21 -4 -24 -10 -3 -5 -12 -10 -20 -10 -16 0 -75 -57
-67 -65 3 -3 0 -5 -7 -5 -7 0 -10 -4 -7 -9 3 -5 -1 -14 -9 -21 -8 -7 -15 -11
-16 -9 -7 38 -6 65 2 75 8 10 5 10 -15 1 -17 -8 -26 -20 -26 -36 0 -15 -4 -21
-14 -18 -7 3 -19 0 -25 -6 -13 -13 -15 -31 -2 -23 12 8 7 -34 -7 -61 -15 -27
-15 -36 -1 -28 5 4 14 18 19 31 5 13 16 24 25 24 9 0 15 9 15 21 0 17 3 19 13
11 10 -9 19 -8 35 3 21 15 39 5 27 -15 -3 -5 -2 -10 4 -10 6 0 15 9 21 20 6
11 8 20 4 20 -4 0 1 8 10 19 15 17 15 19 1 25 -13 4 -14 10 -5 26 9 17 15 18
31 10 11 -6 27 -9 37 -6 22 7 42 50 35 75 -3 13 1 21 14 25 24 8 33 7 32 0 0
-4 5 -10 11 -14 9 -6 9 -13 -2 -29 -10 -18 -11 -23 0 -30 8 -4 10 -15 6 -27
-7 -18 -7 -18 13 -1 11 9 20 23 20 30 0 6 2 17 3 22 5 21 -1 35 -15 35 -8 0
-15 9 -15 20 0 11 7 20 15 20 8 0 17 11 21 24 3 14 12 27 20 30 8 3 19 17 24
32 15 38 5 41 -10 4z"/>
<path d="M14760 10439 c0 -5 5 -7 10 -4 6 3 10 8 10 11 0 2 -4 4 -10 4 -5 0
-10 -5 -10 -11z"/>
<path d="M3571 10418 c-9 -24 -4 -48 9 -48 12 0 26 24 26 44 -1 28 -25 31 -35
4z"/>
<path d="M3882 10418 c-14 -17 -33 -99 -25 -111 3 -5 -4 -4 -14 2 -24 12 -33
6 -33 -25 0 -32 16 -38 37 -14 10 11 29 20 43 20 28 1 60 21 60 39 0 14 -12
14 -28 1 -9 -7 -9 -7 -3 1 6 7 7 25 4 41 -4 23 -3 27 10 22 8 -3 18 -1 22 5 4
7 -3 11 -17 11 -13 0 -29 5 -34 10 -8 8 -14 7 -22 -2z"/>
<path d="M14728 10395 c-2 -19 0 -41 4 -48 4 -7 8 9 8 36 0 55 -6 62 -12 12z"/>
<path d="M14763 10375 c-18 -33 -10 -130 12 -155 16 -17 20 -35 18 -77 -1 -30
-7 -61 -14 -69 -6 -8 -9 -14 -6 -14 3 0 -4 -39 -14 -87 -11 -49 -17 -102 -14
-119 3 -18 -2 -52 -10 -79 -9 -26 -14 -49 -12 -52 3 -2 8 5 12 16 3 12 10 21
15 21 4 0 6 10 3 21 -4 14 0 26 9 33 26 19 49 133 24 119 -6 -3 0 6 13 20 14
15 20 27 15 27 -10 0 -10 127 0 138 3 3 6 -8 6 -23 0 -26 2 -28 15 -15 8 8 15
29 15 45 1 51 -12 140 -22 146 -5 3 -12 25 -15 48 -4 29 -10 41 -19 37 -8 -3
-14 4 -16 17 -3 22 -4 22 -15 2z"/>
<path d="M3790 10320 c0 -11 2 -20 4 -20 2 0 6 9 9 20 3 11 1 20 -4 20 -5 0
-9 -9 -9 -20z"/>
<path d="M14710 10319 c0 -5 5 -7 10 -4 6 3 10 8 10 11 0 2 -4 4 -10 4 -5 0
-10 -5 -10 -11z"/>
<path d="M3413 10248 c0 -8 9 -14 19 -14 21 0 18 20 -4 24 -8 2 -15 -3 -15
-10z"/>
<path d="M3882 10248 c-7 -7 -12 -16 -12 -20 0 -15 15 -8 28 12 13 22 3 27
-16 8z"/>
<path d="M3780 10230 c0 -5 5 -10 10 -10 6 0 10 5 10 10 0 6 -4 10 -10 10 -5
0 -10 -4 -10 -10z"/>
<path d="M14911 10214 c0 -11 3 -14 6 -6 3 7 2 16 -1 19 -3 4 -6 -2 -5 -13z"/>
<path d="M3655 10200 c-8 -13 15 -24 27 -12 6 6 4 11 -6 15 -8 3 -18 2 -21 -3z"/>
<path d="M3753 10180 c-1 -11 2 -18 8 -15 11 7 12 35 1 35 -4 0 -8 -9 -9 -20z"/>
<path d="M14870 10134 c-6 -14 -10 -44 -10 -68 0 -23 -6 -48 -12 -55 -11 -11
-10 -13 0 -7 7 5 15 -1 20 -15 7 -17 11 -19 17 -9 5 9 4 15 -3 18 -7 2 -9 9
-5 15 6 10 11 147 5 147 -1 0 -7 -12 -12 -26z"/>
<path d="M15052 10115 c0 -16 2 -22 5 -12 2 9 2 23 0 30 -3 6 -5 -1 -5 -18z"/>
<path d="M3665 10113 c-11 -3 -24 -10 -30 -15 -12 -13 35 0 50 13 5 5 7 8 5 8
-3 -1 -14 -3 -25 -6z"/>
<path d="M14741 10104 c0 -11 3 -14 6 -6 3 7 2 16 -1 19 -3 4 -6 -2 -5 -13z"/>
<path d="M14940 10101 c0 -10 19 -25 25 -20 1 2 -3 10 -11 17 -8 7 -14 8 -14
3z"/>
<path d="M3505 10067 c-11 -7 -21 -13 -23 -13 -1 -1 3 -13 9 -27 7 -15 16 -24
22 -20 5 3 3 9 -4 14 -11 8 -9 13 9 28 35 30 27 42 -13 18z"/>
<path d="M3620 10064 c0 -21 17 -25 34 -8 21 20 20 22 -9 22 -14 0 -25 -6 -25
-14z"/>
<path d="M14822 10030 c0 -14 2 -19 5 -12 2 6 2 18 0 25 -3 6 -5 1 -5 -13z"/>
<path d="M3427 10023 c-4 -3 -7 -13 -7 -22 0 -13 2 -13 9 -3 4 8 11 13 15 13
18 -3 26 0 26 9 0 11 -33 14 -43 3z"/>
<path d="M14962 10000 c0 -19 2 -27 5 -17 2 9 2 25 0 35 -3 9 -5 1 -5 -18z"/>
<path d="M14949 9958 c-5 -22 -4 -34 6 -41 6 -5 0 -7 -12 -4 -16 4 -23 0 -23
-10 0 -9 6 -13 15 -9 10 4 15 -1 16 -17 1 -15 4 -11 9 12 5 19 4 44 0 55 -5
12 -10 18 -11 14z"/>
<path d="M15019 9928 c-1 -18 0 -37 1 -43 1 -5 2 -17 3 -27 1 -9 5 -14 9 -12
4 3 8 0 8 -7 0 -7 3 -9 6 -6 4 4 1 14 -6 22 -7 9 -12 36 -12 60 1 25 0 45 -3
45 -3 0 -6 -15 -6 -32z"/>
<path d="M14920 9940 c0 -5 5 -10 11 -10 5 0 7 5 4 10 -3 6 -8 10 -11 10 -2 0
-4 -4 -4 -10z"/>
<path d="M14812 9910 c0 -14 2 -19 5 -12 2 6 2 18 0 25 -3 6 -5 1 -5 -13z"/>
<path d="M14896 9851 c-3 -5 0 -11 7 -14 8 -3 14 1 14 9 0 16 -13 19 -21 5z"/>
<path d="M15000 9825 c0 -11 4 -26 9 -34 6 -9 4 -19 -5 -28 -20 -20 -17 -50 6
-73 11 -11 18 -20 15 -20 -3 0 1 -10 10 -23 8 -13 12 -27 8 -30 -3 -4 -1 -7 5
-7 16 0 15 12 -3 46 -8 16 -15 38 -15 50 0 11 -6 26 -12 33 -11 10 -10 15 3
24 15 11 15 15 -2 47 -14 25 -19 29 -19 15z"/>
<path d="M15064 9789 c0 -20 11 -25 20 -10 3 5 0 13 -7 19 -10 8 -13 6 -13 -9z"/>
<path d="M14900 9764 c0 -7 7 -19 15 -27 8 -8 11 -19 7 -23 -4 -5 0 -3 8 4 11
9 11 15 2 24 -7 7 -8 16 -2 23 6 7 3 11 -11 11 -10 0 -19 -6 -19 -12z"/>
<path d="M14963 9705 c0 -8 4 -12 9 -9 5 3 6 10 3 15 -9 13 -12 11 -12 -6z"/>
<path d="M15100 9684 c0 -8 -4 -12 -10 -9 -7 4 -7 -3 0 -22 l10 -28 -19 23
c-11 12 -22 22 -25 22 -12 0 37 -96 60 -118 30 -28 30 -24 3 23 -18 30 -20 40
-10 61 7 16 7 23 1 19 -7 -4 -9 2 -4 19 3 14 3 26 0 26 -3 0 -6 -7 -6 -16z"/>
<path d="M14951 9664 c0 -11 3 -14 6 -6 3 7 2 16 -1 19 -3 4 -6 -2 -5 -13z"/>
<path d="M14996 9638 c-3 -13 -4 -30 -4 -38 0 -8 -2 -22 -4 -30 -3 -8 -3 -11
0 -7 7 13 32 -14 32 -34 0 -10 9 -23 19 -29 36 -18 36 24 2 95 -18 36 -34 65
-36 65 -3 0 -7 -10 -9 -22z"/>
<path d="M14891 9564 c0 -11 3 -14 6 -6 3 7 2 16 -1 19 -3 4 -6 -2 -5 -13z"/>
<path d="M14942 9535 c6 -62 15 -66 14 -5 -1 27 -5 50 -9 50 -5 0 -7 -20 -5
-45z"/>
<path d="M15070 9573 c0 -5 7 -19 16 -31 25 -35 19 -113 -7 -96 -5 3 -7 10 -4
15 4 5 -1 9 -9 9 -25 0 -29 -20 -11 -61 21 -45 38 -51 33 -12 -5 46 20 38 33
-11 6 -24 18 -47 26 -50 17 -7 16 -2 -11 94 -9 30 -16 63 -16 74 0 10 -11 31
-25 48 -14 16 -25 26 -25 21z"/>
<path d="M14189 9510 c-8 -5 -15 -21 -14 -37 0 -15 4 -26 8 -23 5 3 15 -6 23
-20 14 -24 15 -24 11 -2 -3 12 1 25 7 30 20 11 -15 63 -35 52z"/>
<path d="M14905 9490 c3 -5 8 -10 11 -10 2 0 4 5 4 10 0 6 -5 10 -11 10 -5 0
-7 -4 -4 -10z"/>
<path d="M14911 9454 c0 -11 3 -14 6 -6 3 7 2 16 -1 19 -3 4 -6 -2 -5 -13z"/>
<path d="M14933 9404 c-7 -7 -13 -20 -13 -29 0 -9 -5 -25 -10 -36 -7 -11 -7
-19 -1 -19 5 0 13 15 16 33 4 17 12 35 17 38 6 4 9 11 7 17 -2 6 -9 5 -16 -4z"/>
<path d="M15216 9385 c-3 -8 -1 -15 4 -15 6 0 10 7 10 15 0 8 -2 15 -4 15 -2
0 -6 -7 -10 -15z"/>
<path d="M15040 9355 c11 -47 16 -52 22 -21 3 17 -1 31 -13 41 -16 16 -17 14
-9 -20z"/>
<path d="M14172 9369 c2 -6 8 -10 13 -10 5 0 11 4 13 10 2 6 -4 11 -13 11 -9
0 -15 -5 -13 -11z"/>
<path d="M14447 9359 c-14 -16 -15 -23 -5 -39 7 -11 16 -20 21 -20 4 0 6 -3 3
-8 -7 -12 17 -39 36 -39 19 0 13 23 -9 31 -8 4 -13 13 -9 21 3 8 1 15 -5 15
-5 0 -7 11 -3 24 8 32 -8 40 -29 15z"/>
<path d="M14946 9368 c3 -4 11 -5 19 -1 21 7 19 12 -4 10 -11 0 -18 -5 -15 -9z"/>
<path d="M14958 9324 c-20 -38 -23 -65 -9 -79 5 -6 11 -49 14 -98 4 -64 11
-94 25 -115 13 -17 19 -39 16 -57 -2 -17 -1 -21 2 -10 4 11 10 25 16 32 14 17
8 133 -9 165 -7 15 -13 30 -13 33 1 26 -2 36 -16 49 -8 9 -20 14 -25 11 -10
-7 -1 24 13 42 6 7 7 16 4 22 -3 5 0 11 6 14 9 3 10 8 3 15 -7 7 -16 -1 -27
-24z"/>
<path d="M15226 9352 c-3 -6 1 -12 9 -16 15 -5 22 -46 8 -46 -5 0 -8 -11 -8
-24 0 -13 4 -22 9 -18 5 3 6 -3 2 -14 -4 -10 -4 -15 0 -11 13 13 12 101 -1
120 -7 10 -16 14 -19 9z"/>
<path d="M14280 9301 c0 -6 4 -13 10 -16 6 -3 7 1 4 9 -7 18 -14 21 -14 7z"/>
<path d="M15097 9253 c3 -32 11 -75 18 -96 10 -28 10 -48 3 -74 -5 -20 -8 -51
-6 -68 2 -18 -1 -36 -7 -42 -16 -15 -1 -162 20 -204 18 -34 42 -58 59 -59 15
0 -1 105 -24 155 -12 26 -18 54 -15 63 6 15 8 14 15 -4 5 -12 14 -25 21 -30 9
-5 11 8 6 56 -3 34 -11 66 -17 70 -7 5 -9 13 -5 20 5 9 4 11 -3 6 -13 -8 -15
0 -12 54 2 61 -18 159 -39 186 l-20 25 6 -58z"/>
<path d="M15145 9273 c9 -50 22 -73 42 -73 14 0 13 3 -2 26 -11 17 -15 37 -11
55 5 25 2 29 -15 29 -19 0 -20 -4 -14 -37z"/>
<path d="M15060 9240 c0 -5 5 -10 11 -10 5 0 7 5 4 10 -3 6 -8 10 -11 10 -2 0
-4 -4 -4 -10z"/>
<path d="M14526 9231 c-3 -5 1 -12 10 -15 20 -8 29 -1 19 13 -8 13 -22 14 -29
2z"/>
<path d="M15180 9143 c0 -31 15 -61 26 -51 9 10 -5 78 -16 78 -6 0 -10 -12
-10 -27z"/>
<path d="M15248 9152 c-12 -2 -18 -13 -18 -32 0 -15 8 -34 18 -41 14 -11 15
-11 5 1 -18 20 -16 41 4 56 21 14 16 22 -9 16z"/>
<path d="M14905 9121 c-3 -5 -1 -12 5 -16 5 -3 10 1 10 9 0 18 -6 21 -15 7z"/>
<path d="M15190 9043 c0 -7 4 -13 9 -13 5 0 11 6 14 13 3 8 -1 14 -9 14 -8 0
-14 -6 -14 -14z"/>
<path d="M15230 9031 c0 -6 5 -13 10 -16 6 -3 10 1 10 9 0 9 -4 16 -10 16 -5
0 -10 -4 -10 -9z"/>
<path d="M15262 8965 c0 -16 2 -22 5 -12 2 9 2 23 0 30 -3 6 -5 -1 -5 -18z"/>
<path d="M14981 8964 c0 -11 3 -14 6 -6 3 7 2 16 -1 19 -3 4 -6 -2 -5 -13z"/>
<path d="M14985 8863 c1 -35 7 -69 13 -75 7 -7 12 -21 12 -31 0 -10 9 -30 20
-44 11 -14 20 -21 20 -15 0 6 -5 14 -10 17 -6 4 -7 13 -1 24 7 13 3 31 -15 67
-14 27 -21 50 -16 52 12 4 2 69 -12 69 -8 0 -11 -21 -11 -64z"/>
<path d="M15270 8926 c0 -2 8 -10 18 -17 15 -13 16 -12 3 4 -13 16 -21 21 -21
13z"/>
<path d="M14606 8883 c-3 -3 -6 -15 -6 -25 0 -10 -4 -18 -10 -18 -14 0 -13
-27 2 -36 6 -4 8 -3 5 3 -3 5 3 24 13 41 17 27 14 53 -4 35z"/>
<path d="M15071 8874 c0 -11 3 -14 6 -6 3 7 2 16 -1 19 -3 4 -6 -2 -5 -13z"/>
<path d="M15242 8830 c-21 -16 -21 -35 -3 -67 8 -14 10 -15 11 -2 0 8 -5 20
-10 25 -7 7 -5 17 7 31 19 21 37 20 66 -5 15 -14 17 -13 17 1 0 10 -5 17 -11
17 -5 0 -8 3 -6 8 9 14 -52 8 -71 -8z"/>
<path d="M15076 8822 c-8 -13 3 -42 15 -42 11 0 11 21 0 39 -5 8 -11 9 -15 3z"/>
<path d="M14593 8773 c-3 -10 -8 -21 -10 -25 -2 -4 1 -9 6 -12 5 -3 11 8 13
24 5 33 1 39 -9 13z"/>
<path d="M15209 8733 c-1 -10 -1 -22 0 -27 1 -5 -2 -21 -8 -36 -9 -28 2 -61
16 -46 4 5 3 11 -4 13 -9 3 -9 12 -2 29 5 14 9 37 10 52 0 15 3 21 6 15 2 -7
9 -13 15 -13 6 0 6 6 -2 15 -17 20 -30 19 -31 -2z"/>
<path d="M14951 8721 l-23 -20 28 -7 c16 -4 32 -11 35 -16 3 -5 9 -2 12 7 4 9
3 14 -2 10 -5 -3 -13 6 -18 21 l-8 25 -24 -20z"/>
<path d="M15101 8723 c1 -10 -1 -26 -4 -35 -17 -46 -18 -54 -2 -34 15 20 15
20 16 0 0 -10 3 -13 6 -6 2 6 10 9 16 5 7 -4 4 5 -6 20 -9 15 -13 27 -8 27 5
0 7 9 4 20 -7 25 -25 27 -22 3z"/>
<path d="M14357 8723 c-7 -12 11 -53 23 -53 13 0 13 2 -4 35 -8 14 -16 23 -19
18z"/>
<path d="M13781 8704 c0 -11 3 -14 6 -6 3 7 2 16 -1 19 -3 4 -6 -2 -5 -13z"/>
<path d="M13830 8698 c0 -4 4 -8 9 -8 6 0 12 4 15 8 3 5 -1 9 -9 9 -8 0 -15
-4 -15 -9z"/>
<path d="M15245 8700 c3 -5 8 -10 11 -10 2 0 4 5 4 10 0 6 -5 10 -11 10 -5 0
-7 -4 -4 -10z"/>
<path d="M14937 8684 c-3 -5 3 -15 14 -22 16 -10 19 -9 19 4 0 8 -4 13 -9 10
-5 -4 -11 -1 -13 6 -3 7 -7 8 -11 2z"/>
<path d="M15055 8670 c3 -5 11 -10 16 -10 6 0 7 5 4 10 -3 6 -11 10 -16 10 -6
0 -7 -4 -4 -10z"/>
<path d="M15151 8642 c-10 -23 -10 -58 -1 -82 2 -3 2 -9 0 -15 -1 -5 8 -1 19
9 19 18 19 19 3 35 -10 9 -12 12 -5 7 8 -5 13 -4 13 2 0 6 -5 14 -10 17 -7 4
-7 12 0 25 6 11 6 21 1 24 -5 3 -14 -7 -20 -22z"/>
<path d="M14932 8647 c-12 -13 -14 -93 -3 -82 2 3 16 -2 30 -12 20 -13 23 -13
14 -1 -7 8 -9 19 -5 23 4 5 0 6 -8 3 -13 -5 -15 1 -12 28 5 45 0 60 -16 41z"/>
<path d="M15001 8649 c-1 -9 9 -24 22 -35 22 -19 22 -19 6 1 -9 11 -19 27 -22
35 -5 13 -6 13 -6 -1z"/>
<path d="M15047 8619 c4 -13 8 -18 11 -10 2 7 -1 18 -6 23 -8 8 -9 4 -5 -13z"/>
<path d="M14560 8570 c0 -10 -5 -31 -12 -45 -14 -31 -6 -40 20 -26 13 7 18 17
15 30 -3 10 0 22 7 26 8 5 8 10 -1 21 -16 20 -29 17 -29 -6z"/>
<path d="M15180 8550 c-12 -7 -12 -12 -2 -22 6 -6 12 -10 13 -7 0 2 2 12 4 22
4 20 4 19 -15 7z"/>
<path d="M14930 8541 c0 -6 4 -13 10 -16 6 -3 7 1 4 9 -7 18 -14 21 -14 7z"/>
<path d="M14470 8526 c0 -9 5 -16 10 -16 6 0 10 4 10 9 0 6 -4 13 -10 16 -5 3
-10 -1 -10 -9z"/>
<path d="M14477 8473 c-10 -9 -9 -41 1 -47 5 -3 16 8 26 25 16 28 16 29 -2 29
-10 0 -22 -3 -25 -7z"/>
<path d="M14929 8441 c6 -10 7 -22 3 -26 -4 -5 -1 -5 6 -1 9 5 9 12 2 27 -6
10 -13 19 -16 19 -2 0 0 -8 5 -19z"/>
<path d="M15150 8449 c0 -5 5 -7 10 -4 6 3 10 8 10 11 0 2 -4 4 -10 4 -5 0
-10 -5 -10 -11z"/>
<path d="M15215 8450 c3 -5 8 -10 11 -10 2 0 4 5 4 10 0 6 -5 10 -11 10 -5 0
-7 -4 -4 -10z"/>
<path d="M15046 8434 c-9 -22 -7 -92 2 -97 4 -3 8 21 10 54 2 60 -1 72 -12 43z"/>
<path d="M14670 8430 c0 -5 5 -10 11 -10 5 0 7 5 4 10 -3 6 -8 10 -11 10 -2 0
-4 -4 -4 -10z"/>
<path d="M14525 8421 c-3 -5 -1 -12 5 -16 5 -3 10 1 10 9 0 18 -6 21 -15 7z"/>
<path d="M15170 8396 c0 -2 8 -10 18 -17 15 -13 16 -12 3 4 -13 16 -21 21 -21
13z"/>
<path d="M14924 8328 c0 -24 1 -35 4 -25 2 9 8 17 13 17 11 0 5 43 -7 47 -5 2
-10 -16 -10 -39z"/>
<path d="M15360 8358 c0 -18 18 -34 28 -24 3 4 -2 14 -11 23 -16 16 -17 16
-17 1z"/>
<path d="M14496 8347 c3 -10 9 -15 12 -12 3 3 0 11 -7 18 -10 9 -11 8 -5 -6z"/>
<path d="M15100 8267 c0 -7 6 -19 12 -25 10 -10 10 -15 -1 -21 -16 -10 -7 -61
10 -61 6 0 8 9 4 21 -4 12 -2 24 4 28 8 5 8 16 0 39 -11 32 -29 44 -29 19z"/>
<path d="M15264 8171 c3 -18 6 -42 6 -53 0 -10 4 -17 9 -14 5 4 5 23 -1 48
-11 51 -24 67 -14 19z"/>
<path d="M15230 8175 c0 -5 5 -17 10 -25 5 -8 10 -10 10 -5 0 6 -5 17 -10 25
-5 8 -10 11 -10 5z"/>
<path d="M14909 8139 c-7 -14 -7 -25 -1 -31 6 -6 11 1 14 21 5 36 3 38 -13 10z"/>
<path d="M14650 8112 c-16 -18 -23 -72 -9 -72 5 0 9 3 10 8 1 15 7 40 14 61 8
25 5 26 -15 3z"/>
<path d="M15252 8110 c0 -14 2 -19 5 -12 2 6 2 18 0 25 -3 6 -5 1 -5 -13z"/>
<path d="M15226 8105 c4 -8 8 -15 10 -15 2 0 4 7 4 15 0 8 -4 15 -10 15 -5 0
-7 -7 -4 -15z"/>
<path d="M15138 8080 c2 -16 9 -30 14 -30 6 0 7 7 4 16 -3 9 -6 22 -6 30 0 8
-4 14 -8 14 -5 0 -7 -13 -4 -30z"/>
<path d="M14911 8073 c0 -12 -5 -25 -11 -28 -5 -3 -10 -11 -10 -16 0 -6 7 -3
16 5 8 9 13 26 11 38 -4 23 -4 23 -6 1z"/>
<path d="M14709 8062 c-8 -10 -18 -26 -22 -35 -3 -9 -11 -17 -17 -17 -5 0 -10
-14 -10 -30 l0 -31 29 30 c22 23 51 77 51 97 0 10 -17 2 -31 -14z"/>
<path d="M14970 8056 c0 -31 6 -34 13 -6 3 11 1 23 -4 26 -5 3 -9 -6 -9 -20z"/>
<path d="M15303 8030 c0 -25 2 -35 4 -22 2 12 2 32 0 45 -2 12 -4 2 -4 -23z"/>
<path d="M14925 8032 c-6 -4 -16 -19 -22 -34 -11 -24 -10 -26 4 -21 15 6 16
-6 9 -115 -4 -74 -3 -122 3 -122 10 0 24 179 19 252 -2 27 -3 48 -3 48 0 0 -5
-4 -10 -8z"/>
<path d="M14597 8023 c-14 -4 -17 -11 -13 -26 3 -12 6 -25 6 -29 0 -5 4 -8 9
-8 5 0 11 16 13 35 2 19 4 34 3 34 0 -1 -8 -3 -18 -6z"/>
<path d="M15146 8008 c-3 -13 -1 -27 4 -32 17 -17 11 -28 -14 -24 -23 5 -24 3
-31 -79 -7 -84 -3 -115 10 -71 9 32 26 67 52 107 20 29 21 36 9 53 -8 10 -12
27 -9 38 3 10 0 20 -5 24 -5 3 -12 -4 -16 -16z m4 -112 c0 -11 -19 -15 -25 -6
-3 5 1 10 9 10 9 0 16 -2 16 -4z"/>
<path d="M14501 7961 c-17 -11 -5 -51 15 -51 16 0 19 16 4 25 -5 3 -7 12 -3
20 6 17 3 18 -16 6z"/>
<path d="M15252 7925 c-2 -32 3 -42 31 -64 15 -12 17 -11 17 12 0 20 -4 24
-19 20 -16 -4 -20 1 -24 29 -4 32 -4 32 -5 3z"/>
<path d="M14611 7935 c1 -19 18 -51 18 -35 0 8 -4 22 -9 30 -5 8 -9 11 -9 5z"/>
<path d="M14760 7919 c0 -5 5 -7 10 -4 6 3 10 8 10 11 0 2 -4 4 -10 4 -5 0
-10 -5 -10 -11z"/>
<path d="M14311 7844 c-13 -13 -21 -27 -16 -32 4 -4 10 -1 12 6 3 6 11 12 19
12 8 0 14 2 14 4 0 2 3 11 6 20 9 23 -7 18 -35 -10z"/>
<path d="M15256 7842 c-2 -4 -7 -36 -10 -72 -4 -36 -14 -82 -23 -102 -14 -33
-19 -37 -42 -33 -25 5 -26 5 -3 -6 12 -7 22 -18 22 -25 0 -22 45 -10 45 12 1
10 5 26 10 34 5 8 10 41 11 74 2 32 7 63 13 69 16 16 13 44 -4 50 -8 4 -16 3
-19 -1z"/>
<path d="M14873 7795 c0 -22 2 -30 4 -17 2 12 2 30 0 40 -3 9 -5 -1 -4 -23z"/>
<path d="M14961 7709 c-27 -29 -19 -37 9 -9 12 12 19 24 17 26 -3 3 -14 -5
-26 -17z"/>
<path d="M14859 7683 c-1 -10 -1 -38 -1 -63 1 -24 -4 -50 -9 -57 -12 -14 -26
-173 -15 -173 4 0 12 13 17 30 6 16 14 28 19 25 4 -2 12 8 19 23 11 26 11 26
-5 7 -15 -19 -15 -19 -12 10 2 17 8 29 15 28 8 -2 10 8 6 30 -7 43 -4 96 6
116 5 9 6 22 4 29 -7 19 -43 15 -44 -5z"/>
<path d="M14921 7684 c0 -11 3 -14 6 -6 3 7 2 16 -1 19 -3 4 -6 -2 -5 -13z"/>
<path d="M14680 7683 c1 -18 18 -35 24 -24 4 6 4 16 1 21 -7 12 -25 13 -25 3z"/>
<path d="M14741 7663 c-8 -18 -9 -29 -1 -37 5 -5 10 -8 11 -5 3 17 7 69 5 69
-2 0 -8 -12 -15 -27z"/>
<path d="M14962 7670 c-18 -29 -15 -38 4 -12 9 13 14 25 12 27 -2 2 -9 -5 -16
-15z"/>
<path d="M13372 7663 c-8 -14 -9 -24 -2 -28 12 -7 24 18 18 37 -3 8 -9 5 -16
-9z"/>
<path d="M14235 7649 c-4 -11 -4 -23 -2 -26 9 -8 27 7 27 22 0 23 -18 27 -25
4z"/>
<path d="M14573 7619 c6 -46 14 -60 32 -52 8 3 15 0 15 -7 0 -6 5 -8 10 -5 14
9 12 37 -2 32 -7 -2 -23 12 -36 32 l-23 36 4 -36z"/>
<path d="M13425 7620 c-3 -5 -1 -10 4 -10 6 0 11 5 11 10 0 6 -2 10 -4 10 -3
0 -8 -4 -11 -10z"/>
<path d="M14926 7621 c-4 -5 3 -7 14 -4 23 6 26 13 6 13 -8 0 -17 -4 -20 -9z"/>
<path d="M14465 7585 c-4 -22 -11 -55 -17 -73 -9 -29 -13 -33 -35 -27 -16 4
-31 1 -42 -9 -68 -62 -71 -66 -71 -100 0 -27 -4 -34 -14 -30 -8 3 -23 -4 -33
-15 -24 -29 -40 -26 -58 10 -9 17 -19 28 -23 25 -3 -4 0 -12 6 -18 7 -7 12
-22 12 -35 0 -13 5 -23 10 -23 6 0 10 -7 10 -16 0 -11 -5 -14 -16 -10 -13 5
-14 3 -6 -7 8 -10 4 -26 -18 -64 -16 -28 -34 -54 -39 -57 -5 -4 -7 -21 -4 -40
3 -21 0 -42 -10 -57 -29 -47 -36 -155 -24 -369 9 -165 15 -212 39 -295 11 -38
23 -81 27 -94 9 -32 28 -38 36 -12 3 12 13 21 22 21 13 0 14 7 9 38 -4 20 -11
64 -17 97 -5 33 -12 74 -14 90 -3 17 -7 48 -8 70 -2 23 -6 46 -10 52 -4 6 -1
13 5 16 10 4 11 7 1 18 -8 8 -13 40 -13 81 0 56 4 72 21 89 17 17 19 23 8 30
-11 6 -10 12 4 27 10 11 20 34 22 52 2 18 7 42 10 54 2 12 -2 8 -10 -9 -8 -16
-14 -36 -15 -42 0 -7 -4 -13 -10 -13 -5 0 -3 21 5 48 8 26 15 48 15 50 0 2 3
1 8 -2 16 -10 40 22 47 64 4 25 13 60 21 78 7 18 10 40 7 49 -4 11 -3 14 5 9
11 -6 17 5 13 27 0 4 4 7 9 7 6 0 10 7 10 15 0 8 4 15 10 15 5 0 27 26 47 58
21 31 48 61 61 67 12 5 22 17 22 26 0 9 6 22 14 28 16 14 27 80 12 78 -6 -1
-15 14 -22 33 l-12 35 -7 -40z"/>
<path d="M14736 7595 c4 -8 7 -15 9 -15 2 0 5 7 9 15 3 9 0 15 -9 15 -9 0 -12
-6 -9 -15z"/>
<path d="M15280 7570 c0 -11 5 -20 10 -20 6 0 10 9 10 20 0 11 -4 20 -10 20
-5 0 -10 -9 -10 -20z"/>
<path d="M15121 7389 c-68 -140 -125 -230 -201 -319 -75 -87 -147 -188 -154
-215 -4 -16 -21 -45 -37 -66 -16 -20 -29 -43 -29 -52 0 -8 -11 -31 -25 -51
-14 -20 -25 -46 -25 -57 0 -11 -7 -36 -16 -57 -16 -38 -28 -286 -17 -345 6
-33 23 -18 23 21 0 12 6 25 13 27 8 4 12 29 13 73 1 46 -1 60 -7 45 -5 -13
-14 -23 -20 -23 -7 0 -9 8 -4 23 4 12 13 53 21 91 14 68 36 116 53 116 13 0
31 49 21 55 -18 11 -10 40 38 136 51 100 179 288 198 289 6 0 26 24 45 53 80
123 212 409 188 407 -2 0 -37 -68 -78 -151z"/>
<path d="M14570 7520 c0 -5 5 -10 10 -10 6 0 10 5 10 10 0 6 -4 10 -10 10 -5
0 -10 -4 -10 -10z"/>
<path d="M14522 7467 c-28 -29 -29 -57 -3 -50 22 6 42 45 32 62 -5 8 -14 4
-29 -12z"/>
<path d="M15017 7423 c-4 -3 -7 -11 -7 -17 0 -6 5 -5 12 2 6 6 9 14 7 17 -3 3
-9 2 -12 -2z"/>
<path d="M14640 7390 c-67 -53 -72 -62 -66 -119 5 -55 11 -69 23 -57 4 4 2 16
-5 26 -15 24 -15 33 -2 25 5 -3 12 7 15 22 11 52 24 73 39 67 8 -3 17 -13 19
-22 3 -10 5 4 6 31 0 26 0 47 -1 47 -2 -1 -14 -9 -28 -20z"/>
<path d="M14862 7340 c0 -14 2 -19 5 -12 2 6 2 18 0 25 -3 6 -5 1 -5 -13z"/>
<path d="M14810 7330 c0 -11 2 -20 4 -20 2 0 6 9 9 20 3 11 1 20 -4 20 -5 0
-9 -9 -9 -20z"/>
<path d="M14520 7320 c6 -11 12 -20 13 -20 2 0 3 9 4 20 1 12 -4 20 -13 20
-12 0 -12 -4 -4 -20z"/>
<path d="M14377 7297 c-22 -28 -14 -34 12 -8 11 11 17 22 13 25 -4 2 -15 -5
-25 -17z"/>
<path d="M14927 7302 c-10 -10 -17 -23 -17 -29 0 -5 -11 -20 -25 -33 -31 -29
-35 -56 -5 -40 11 6 20 16 20 23 1 7 14 28 30 47 17 19 30 38 30 42 0 14 -16
9 -33 -10z"/>
<path d="M14401 7266 c-7 -8 -8 -17 -3 -20 6 -3 13 1 16 10 9 23 2 28 -13 10z"/>
<path d="M14350 7242 c-14 -11 -25 -32 -26 -50 -1 -17 -5 -35 -9 -41 -3 -6 -1
-11 5 -11 7 0 5 -7 -4 -16 -20 -19 -20 -24 -2 -24 14 0 32 36 28 53 -1 4 7 17
18 29 11 12 18 28 15 36 -2 7 0 10 5 7 12 -7 13 5 1 23 -6 10 -13 9 -31 -6z"/>
<path d="M14812 7154 c3 -17 21 -21 26 -6 1 5 -4 12 -13 16 -11 4 -15 1 -13
-10z"/>
<path d="M14386 7134 c-9 -24 -2 -26 12 -4 7 11 8 20 3 20 -5 0 -12 -7 -15
-16z"/>
<path d="M14528 7117 c9 -11 10 -17 2 -22 -6 -4 -9 -13 -6 -20 6 -17 -19 -39
-35 -30 -8 5 -9 1 -5 -13 7 -22 -8 -61 -28 -74 -8 -5 -7 -8 1 -8 7 0 10 -6 7
-14 -3 -9 2 -13 16 -12 27 1 71 94 73 156 2 37 -1 45 -18 48 -16 4 -17 2 -7
-11z"/>
<path d="M14621 7104 c0 -11 3 -14 6 -6 3 7 2 16 -1 19 -3 4 -6 -2 -5 -13z"/>
<path d="M14761 7074 c0 -11 3 -14 6 -6 3 7 2 16 -1 19 -3 4 -6 -2 -5 -13z"/>
<path d="M14373 7055 c-3 -9 -3 -18 -1 -21 3 -3 8 4 11 16 6 23 -1 27 -10 5z"/>
<path d="M14371 6996 c-9 -10 -9 -21 -3 -32 8 -14 10 -12 16 11 8 33 3 41 -13
21z"/>
<path d="M14250 6963 c0 -10 4 -24 9 -31 7 -11 9 -11 14 2 7 19 -1 46 -14 46
-5 0 -9 -8 -9 -17z"/>
<path d="M14340 6943 c0 -10 35 -63 42 -63 4 0 10 5 13 10 3 6 1 10 -5 10 -7
0 -10 6 -7 13 2 7 -6 18 -19 24 -13 6 -24 9 -24 6z"/>
<path d="M14580 6931 c-6 -12 -7 -21 -1 -21 10 0 24 30 17 37 -2 3 -9 -5 -16
-16z"/>
<path d="M14250 6900 c0 -5 5 -10 10 -10 6 0 10 5 10 10 0 6 -4 10 -10 10 -5
0 -10 -4 -10 -10z"/>
<path d="M14405 6890 c-15 -17 -16 -23 -5 -33 10 -10 11 -9 5 2 -6 10 -4 12 5
6 10 -6 9 -11 -5 -22 -13 -9 -21 -10 -25 -3 -9 15 -28 -10 -25 -32 2 -10 -2
-18 -7 -18 -6 0 -4 -8 5 -18 15 -16 15 -19 -4 -30 -11 -7 -19 -18 -16 -25 2
-6 -3 -18 -10 -26 -12 -11 -11 -15 3 -25 14 -11 14 -13 -3 -27 -16 -13 -17
-13 -4 4 12 15 11 17 -3 17 -9 0 -16 -6 -17 -12 -2 -46 -11 -94 -19 -103 -6
-7 -2 -15 9 -22 14 -9 21 -7 34 8 9 10 14 19 10 19 -17 0 15 19 39 24 39 7 45
12 50 46 4 27 -2 35 -24 31 -15 -2 -7 14 22 49 17 19 30 40 30 46 0 7 5 14 11
16 6 2 12 19 14 38 2 43 14 72 26 64 5 -3 9 0 9 5 0 6 0 14 0 19 0 4 -9 8 -20
8 -11 1 -20 -3 -20 -8 0 -4 -11 -2 -23 7 -22 14 -25 14 -42 -5z m55 -52 c0 -5
-7 -8 -15 -8 -15 0 -20 21 -8 33 7 7 23 -11 23 -25z"/>
<path d="M14690 6866 c0 -8 -10 -22 -22 -30 -12 -9 -17 -16 -10 -16 6 0 12 -7
12 -15 0 -8 -7 -15 -15 -15 -8 0 -16 -3 -16 -7 -1 -5 -3 -21 -5 -38 -2 -26 -1
-27 8 -11 21 37 41 54 57 49 13 -5 13 -3 4 7 -12 14 -6 43 8 35 4 -3 3 8 -2
25 -12 32 -19 39 -19 16z"/>
<path d="M14277 6856 c-10 -8 -18 -23 -16 -33 1 -10 -1 -26 -6 -36 -4 -10 -5
-21 -1 -24 3 -3 1 -12 -5 -20 -6 -7 -8 -13 -4 -13 4 0 1 -7 -6 -16 -12 -15
-11 -16 7 -10 14 4 21 2 21 -7 0 -9 -10 -12 -26 -10 -23 3 -24 2 -6 -6 16 -8
17 -10 3 -10 -14 -1 -15 -5 -5 -31 14 -37 29 -34 34 5 2 16 8 36 13 44 5 10 3
20 -8 29 -14 11 -15 13 -1 9 12 -4 15 4 16 35 0 22 6 44 13 48 15 9 21 60 6
60 -6 0 -19 -7 -29 -14z"/>
<path d="M14231 6844 c0 -11 3 -14 6 -6 3 7 2 16 -1 19 -3 4 -6 -2 -5 -13z"/>
<path d="M14883 6828 c-23 -30 -24 -41 -2 -21 12 12 20 25 17 28 -3 3 -10 0
-15 -7z"/>
<path d="M14195 6800 c-4 -6 -4 -23 0 -38 l7 -27 10 28 c11 31 -3 60 -17 37z"/>
<path d="M14530 6769 c0 -5 5 -7 10 -4 6 3 10 8 10 11 0 2 -4 4 -10 4 -5 0
-10 -5 -10 -11z"/>
<path d="M14051 6714 c0 -11 3 -14 6 -6 3 7 2 16 -1 19 -3 4 -6 -2 -5 -13z"/>
<path d="M14760 6685 c-10 -12 -10 -15 3 -15 8 0 17 7 21 15 3 8 2 15 -3 15
-5 0 -14 -7 -21 -15z"/>
<path d="M14500 6664 c0 -20 -4 -25 -21 -22 -16 2 -24 -5 -33 -33 l-13 -36 34
19 c39 23 39 23 48 66 4 20 3 32 -4 32 -6 0 -11 -12 -11 -26z"/>
<path d="M12950 6597 c0 -9 -5 -17 -12 -17 -8 0 -6 -6 5 -17 26 -26 45 -3 23
28 -13 19 -16 20 -16 6z"/>
<path d="M12885 6581 c-3 -5 0 -13 7 -17 8 -5 7 -9 -6 -13 -16 -6 -15 -8 2
-26 10 -11 24 -29 31 -40 10 -16 11 -16 7 -2 -5 15 -3 16 15 6 15 -8 19 -8 15
0 -11 18 6 13 19 -6 9 -13 14 -13 20 -3 6 9 4 11 -5 5 -10 -6 -12 -4 -7 8 8
22 -19 43 -37 28 -10 -8 -16 -9 -21 -1 -3 6 -11 8 -16 5 -5 -3 -6 1 -3 10 4 8
1 21 -5 29 -6 7 -8 16 -4 19 3 4 4 7 0 7 -3 0 -8 -4 -12 -9z"/>
<path d="M14707 6570 c-3 -11 -2 -20 3 -20 12 0 21 28 11 35 -5 2 -11 -4 -14
-15z"/>
<path d="M14220 6550 c0 -24 15 -27 24 -4 9 22 8 24 -9 24 -8 0 -15 -9 -15
-20z"/>
<path d="M14365 6536 c-15 -15 -26 -20 -29 -13 -3 7 -5 3 -4 -8 2 -20 -31 -85
-43 -85 -4 0 -9 -11 -11 -25 -3 -14 -2 -25 2 -25 15 0 17 -36 2 -50 -13 -12
-13 -14 4 -20 13 -5 20 -2 22 9 2 9 9 21 16 26 22 17 49 78 48 107 0 16 3 28
8 28 5 0 11 9 15 19 20 65 10 77 -30 37z"/>
<path d="M14425 6529 c-4 -6 -5 -12 -2 -15 2 -3 7 2 10 11 7 17 1 20 -8 4z"/>
<path d="M14531 6514 c0 -11 3 -14 6 -6 3 7 2 16 -1 19 -3 4 -6 -2 -5 -13z"/>
<path d="M14253 6492 c-22 -3 -22 -3 -2 -23 20 -20 27 -45 9 -34 -5 3 -10 14
-10 23 0 15 -2 15 -10 2 -15 -23 -12 -40 8 -37 28 4 44 18 38 33 -3 7 0 11 7
8 8 -3 13 4 13 15 0 19 -5 20 -53 13z"/>
<path d="M12956 6445 c-3 -8 -1 -15 4 -15 6 0 10 -4 10 -10 0 -5 -3 -9 -7 -9
-21 3 -22 -3 -8 -30 9 -19 11 -32 5 -36 -5 -3 -9 -16 -8 -29 3 -30 33 -28 34
2 1 12 7 28 14 37 20 24 -3 105 -30 105 -4 0 -10 -7 -14 -15z"/>
<path d="M14351 6356 c-12 -18 -21 -42 -21 -52 0 -15 5 -13 30 11 18 18 29 37
28 52 -3 32 -13 29 -37 -11z"/>
<path d="M14415 6290 c4 -6 11 -8 16 -5 14 9 11 15 -7 15 -8 0 -12 -5 -9 -10z"/>
<path d="M13990 6253 c0 -34 6 -39 28 -24 10 6 8 13 -7 32 l-20 24 -1 -32z"/>
<path d="M12935 6244 c-9 -9 -19 -30 -22 -46 -3 -16 -12 -32 -19 -35 -8 -3
-11 -9 -8 -14 3 -5 0 -9 -6 -9 -6 0 -8 -5 -5 -10 5 -8 11 -8 19 -1 7 6 16 8
20 4 4 -4 4 0 0 10 -5 13 -2 16 10 11 17 -6 23 4 28 46 2 14 7 30 11 37 12 19
-10 25 -28 7z"/>
<path d="M14202 6243 c-4 -10 -6 -34 -3 -53 l6 -35 25 25 c22 22 23 25 7 28
-14 3 -16 7 -7 17 12 15 6 35 -10 35 -5 0 -13 -8 -18 -17z"/>
<path d="M14366 6219 c-22 -45 -20 -50 5 -11 12 18 19 35 16 38 -3 3 -12 -9
-21 -27z"/>
<path d="M14256 6188 c-20 -23 -36 -49 -36 -57 0 -9 -12 -38 -25 -66 -14 -27
-25 -56 -25 -62 0 -7 -5 -13 -11 -13 -5 0 -7 -5 -4 -10 4 -6 26 11 50 37 24
26 42 49 40 51 -2 2 7 26 21 52 22 42 40 110 29 110 -2 0 -20 -19 -39 -42z"/>
<path d="M14626 6182 c-4 -6 -1 -22 5 -34 15 -28 23 -11 11 22 -6 15 -11 19
-16 12z"/>
<path d="M14336 6162 c-3 -5 1 -15 9 -22 8 -7 15 -20 15 -29 1 -13 2 -13 11 3
9 14 7 22 -9 38 -11 12 -22 16 -26 10z"/>
<path d="M14020 6140 c0 -11 5 -20 10 -20 6 0 10 9 10 20 0 11 -4 20 -10 20
-5 0 -10 -9 -10 -20z"/>
<path d="M14301 6104 c0 -11 3 -14 6 -6 3 7 2 16 -1 19 -3 4 -6 -2 -5 -13z"/>
<path d="M12878 6103 c7 -3 16 -2 19 1 4 3 -2 6 -13 5 -11 0 -14 -3 -6 -6z"/>
<path d="M14266 6082 c-8 -13 20 -78 37 -89 7 -4 8 0 4 11 -4 10 -7 25 -7 35
0 25 -25 57 -34 43z"/>
<path d="M14651 6054 c0 -11 3 -14 6 -6 3 7 2 16 -1 19 -3 4 -6 -2 -5 -13z"/>
<path d="M14103 5918 c-53 -70 -66 -104 -24 -63 17 17 31 34 31 38 0 4 10 21
22 37 12 16 19 32 16 35 -3 3 -23 -18 -45 -47z"/>
<path d="M14380 5936 c0 -2 8 -10 18 -17 15 -13 16 -12 3 4 -13 16 -21 21 -21
13z"/>
<path d="M16150 5880 c-12 -8 -11 -10 8 -10 12 0 22 5 22 10 0 13 -11 13 -30
0z"/>
<path d="M14480 5775 c13 -14 26 -25 28 -25 3 0 -5 11 -18 25 -13 14 -26 25
-28 25 -3 0 5 -11 18 -25z"/>
<path d="M14535 5712 c11 -13 29 -28 40 -34 21 -11 18 -8 -30 32 -29 24 -29
24 -10 2z"/>
<path d="M16141 5649 c-17 -18 -31 -37 -31 -42 0 -5 -14 -22 -31 -38 -18 -16
-29 -32 -26 -35 8 -9 115 94 123 118 10 33 -4 32 -35 -3z"/>
<path d="M14610 5639 c14 -13 33 -33 43 -44 14 -16 16 -16 11 -3 -3 9 -22 29
-42 44 -32 23 -33 23 -12 3z"/>
<path d="M14680 5576 c0 -2 8 -10 18 -17 15 -13 16 -12 3 4 -13 16 -21 21 -21
13z"/>
<path d="M14753 5533 c9 -2 23 -2 30 0 6 3 -1 5 -18 5 -16 0 -22 -2 -12 -5z"/>
<path d="M14878 5493 c6 -2 18 -2 25 0 6 3 1 5 -13 5 -14 0 -19 -2 -12 -5z"/>
<path d="M14970 5462 c0 -5 11 -14 25 -20 14 -6 25 -10 25 -8 0 2 -11 11 -25
20 -14 9 -25 13 -25 8z"/>
<path d="M14905 5450 c3 -5 10 -10 16 -10 5 0 9 5 9 10 0 6 -7 10 -16 10 -8 0
-12 -4 -9 -10z"/>
<path d="M14896 5428 c3 -4 28 -20 56 -34 51 -26 78 -24 43 3 -20 15 -20 15 2
10 13 -3 25 -1 28 3 3 5 -16 11 -42 15 -27 3 -58 7 -70 9 -12 2 -20 -1 -17 -6z"/>
<path d="M15070 5395 c0 -6 10 -17 23 -22 21 -10 21 -10 -5 -10 -15 0 -33 6
-39 13 -13 16 -29 19 -29 6 0 -16 118 -58 148 -53 8 1 21 -4 30 -11 12 -9 12
-6 -2 10 -14 17 -16 22 -5 22 23 0 -48 41 -86 50 -25 6 -35 4 -35 -5z"/>
<path d="M15343 5264 c2 -22 10 -30 41 -41 22 -7 41 -11 44 -9 2 3 -14 10 -37
17 -23 7 -41 16 -41 20 0 13 24 16 41 6 9 -6 25 -7 35 -2 15 6 10 10 -24 16
-23 4 -46 11 -52 14 -5 3 -8 -7 -7 -21z"/>
</g>
</svg>
